<?xml version="1.0" encoding="UTF-8" standalone="no"?>
<svg width="881px" height="138px" viewBox="0 0 881 138" version="1.1" xmlns="http://www.w3.org/2000/svg" xmlns:xlink="http://www.w3.org/1999/xlink">
    <!-- Generator: Sketch 46 (44423) - http://www.bohemiancoding.com/sketch -->
    <title>melvin_mangada</title>
    <desc>Created with Sketch.</desc>
    <defs></defs>
    <g id="Page-1" stroke="none" stroke-width="1" fill="none" fill-rule="evenodd">
        <g id="Jury-Bio" transform="translate(-392.000000, -141.000000)" fill-rule="nonzero" fill="#EDCB19">
            <g id="melvin_mangada" transform="translate(392.000000, 141.000000)">
                <path d="M81.3974219,122.819736 C80.6672183,123.060088 80.0181484,123.060088 79.2879447,122.819736 C78.5577411,122.579384 77.9086712,122.41915 77.1784676,122.41915 C76.7727989,121.858329 76.2859965,121.217391 75.7180603,120.656571 C75.2312579,120.09575 74.9067229,119.454812 74.8255892,118.653639 C74.6633217,116.971177 74.7444555,115.208598 75.0689904,113.365901 C75.3935254,111.523205 75.6369266,109.760625 75.8803278,108.078163 C76.123729,106.395701 76.2048627,104.713239 76.123729,103.191011 C76.0425953,101.668784 76.123729,100.146556 76.3671302,98.544211 C76.5293977,97.1021006 76.6916652,95.900342 76.7727989,94.938935 C76.8539326,93.9775281 77.0162001,92.8558867 77.1784676,91.4938935 C77.66527,88.369321 78.0709387,85.3248657 78.3143399,82.5207621 C78.4766074,81.0786517 78.7200086,79.6365413 79.1256773,78.2745481 C79.4502122,76.912555 79.7747472,75.4704446 80.0181484,74.0283341 C80.1804159,73.2271617 80.2615496,72.5061065 80.1804159,71.704934 C80.0992821,70.9037616 80.1804159,70.1025892 80.3426833,69.3014167 C80.748352,66.9780166 81.2351544,64.7347338 81.8030906,62.4914509 C82.3710268,60.2481681 82.8578292,58.0048852 83.2634979,55.6814851 C83.6691666,53.1978505 84.0748352,50.7943332 84.3182365,48.3908158 C84.5616377,45.9872985 84.8861726,43.5837811 85.372975,41.1802638 C85.8597775,38.8568637 86.2654462,36.5334636 86.5899811,34.1299463 C86.9145161,31.7264289 87.3201847,29.4030288 87.9692546,27.2398632 C88.4560571,24.9164631 89.0239932,22.6731803 89.4296619,20.3497802 C89.9164643,18.1064973 90.322133,15.8632145 90.8089354,13.6199316 C90.4032668,14.1006351 89.9975981,14.6614558 89.6730631,15.3023937 C89.3485282,15.8632145 89.105127,16.5041524 88.9428595,17.0649731 C88.2126558,18.4269663 87.563586,19.628725 86.8333823,20.6702491 C86.1031787,21.7918906 85.5352425,22.913532 84.9673064,24.1152907 C84.3993702,25.3170493 83.7503003,26.4386908 83.1012304,27.5603322 C82.0464918,29.2427943 80.9917532,30.9252565 79.9370146,32.5276014 C78.8822761,34.1299463 77.7464037,35.8124084 76.6105314,37.4147533 C76.2048627,37.975574 75.8803278,38.616512 75.6369266,39.1773327 C75.3935254,39.7381534 75.1501241,40.3790914 74.8255892,41.0200293 C73.8519844,43.0229604 72.8783795,44.8656571 71.7425072,46.6282364 C70.6877686,48.3908158 69.5518963,50.2335125 68.416024,51.9960918 C67.3612854,53.8387885 66.3065468,55.6814851 65.2518082,57.3639472 C64.1970696,59.0464094 63.0611973,60.8089888 61.8441912,62.6516854 C61.3573888,63.5329751 60.7894527,64.4142648 60.3026502,65.2955545 C59.8158478,66.1768442 59.1667779,67.1382511 58.517708,68.0195408 C57.7063706,69.1411822 57.0573007,70.1827064 56.4082308,71.3043478 C55.8402947,72.345872 55.0289573,73.4675134 54.2176199,74.5891549 L53.1628813,75.8710308 C52.9194801,76.271617 52.6760789,76.7523205 52.4326777,77.2330239 C52.1892765,77.7137274 51.9458753,78.1143136 51.7024741,78.5950171 L49.9986656,81.1587689 C49.4307294,81.9599414 48.8627933,82.6809966 48.4571246,83.4020518 C48.0514559,84.123107 47.3212523,84.5236932 46.3476474,84.6038105 C45.6174438,84.6839277 45.1306414,84.6038105 44.6438389,84.2833415 C44.2381702,83.9628725 43.7513678,83.6424035 43.3456991,83.3219345 C42.9400305,83.0815828 42.453228,82.8412311 41.9664256,82.6008793 C41.4796232,82.3605276 41.1550882,82.0400586 40.9928208,81.6394724 C40.6682858,79.7967758 40.5060183,77.8739619 40.6682858,75.8710308 C40.8305533,73.8680997 40.9928208,71.9452858 41.3173557,69.9423547 C41.6418907,67.9394235 41.8852919,65.9364924 42.2098268,64.0136786 C42.5343618,62.0908647 42.6966292,60.1680508 42.6966292,58.1651197 C42.6966292,56.5627748 42.6966292,54.7200782 42.777763,52.7972643 C42.8588967,50.7943332 43.0211642,48.8715193 43.3456991,47.0288227 C43.4268329,46.147533 43.5891003,45.3463605 43.8325016,44.4650708 C44.0759028,43.5837811 44.1570365,42.7826087 44.1570365,41.901319 C44.319304,38.616512 44.5627052,35.3317049 44.8061064,32.0468979 C45.0495076,28.6819736 45.3740426,25.3971666 45.860845,22.0322423 C44.9683739,23.4743527 44.319304,24.9965804 43.7513678,26.5989253 C43.2645654,28.2012702 42.6154955,29.803615 41.9664256,31.4059599 C40.9928208,33.4088911 40.1814834,35.4118222 39.370146,37.5749878 C38.5588086,39.7381534 37.7474713,41.7410845 36.7738664,43.7440156 C36.287064,44.8656571 35.8002616,45.9071812 35.4757266,47.0288227 C35.1511917,48.0703468 34.6643892,49.1919883 34.1775868,50.3136297 C33.6907844,51.1949194 33.1228482,52.0762091 32.5549121,53.037616 C31.9869759,53.999023 31.5001735,55.0405471 31.1756385,56.1621886 C30.9322373,56.8832438 30.6888361,57.604299 30.4454349,58.3253542 C30.2020337,59.1265266 29.9586325,59.8475818 29.6340975,60.4885198 C29.3095626,61.3698095 28.9038939,62.1709819 28.4170915,62.9721544 C27.9302891,63.7733268 27.5246204,64.6546165 27.0378179,65.6160234 C26.8755505,66.0166097 26.713283,66.4973131 26.6321493,67.0581339 C26.5510155,67.5388373 26.388748,68.099658 26.1453468,68.5803615 C25.9830794,68.9809477 25.8208119,69.4616512 25.6585444,70.0224719 C25.4962769,70.5832926 25.4151432,71.0639961 25.171742,71.4645823 C25.0094745,71.7850513 24.7660733,72.1856375 24.6038058,72.5061065 C24.3604046,72.8265755 24.1981371,73.2271617 24.0358697,73.5476307 C23.7113347,74.3488031 23.4679335,74.9096238 23.305666,75.3102101 C23.1433986,75.7107963 23.0622648,76.1113825 22.9811311,76.4318515 C22.8999973,76.7523205 22.7377299,77.0727894 22.4943287,77.3932584 C22.2509274,77.7137274 21.9263925,78.2745481 21.3584563,79.0757206 C21.1150551,79.876893 20.8716539,80.5979482 20.547119,81.4792379 C20.3037178,82.2804104 19.9791828,83.0815828 19.6546479,83.8827553 C19.3301129,84.6038105 18.9244442,85.2447484 18.5187755,85.9658036 C18.1131068,86.6868588 17.7074382,87.407914 17.4640369,88.2090865 C17.139502,89.3307279 16.814967,90.4523693 16.5715658,91.5740107 C16.3281646,92.6956522 16.0036297,93.8974108 15.5168273,95.0991695 C15.1922923,96.0605765 14.8677574,96.8617489 14.7054899,97.6629213 C14.4620887,98.4640938 14.1375537,99.2652662 13.731885,100.226673 C13.6507513,100.467025 13.5696176,100.787494 13.5696176,101.027846 C13.5696176,101.348315 13.4884838,101.588666 13.3262163,101.829018 C13.1639489,102.229604 12.9205477,102.710308 12.7582802,103.110894 C12.514879,103.51148 12.3526115,103.992184 12.2714778,104.39277 L11.1356054,108.398632 C10.973338,108.799218 10.8110705,109.279922 10.7299368,109.680508 C10.648803,110.081094 10.4865355,110.481681 10.3242681,110.802149 C10.1620006,111.282853 9.83746564,111.843674 9.26952948,112.324377 C8.78272706,112.805081 8.53932585,113.446019 8.62045959,114.086957 C8.13365716,114.407426 7.64685474,114.888129 7.32231979,115.529067 C6.99778484,116.170005 6.51098242,116.730826 5.86191252,117.131412 C5.53737757,117.371764 5.05057515,117.531998 4.40150525,117.612115 C3.83356909,117.692233 3.18449919,117.692233 2.61656303,117.692233 C2.04862687,117.612115 1.48069071,117.531998 0.912754544,117.291646 C0.425952121,117.051295 0.101417172,116.810943 0.0202834343,116.490474 C-0.060850303,116.330239 0.101417172,115.849536 0.507085858,115.128481 C0.912754544,114.407426 1.15615576,113.766488 1.31842323,113.285784 C1.48069071,112.564729 1.72409192,112.003908 1.96749313,111.443087 C2.21089434,110.882267 2.45429555,110.321446 2.7788305,109.840743 C4.15810404,106.235467 5.37511009,102.630191 6.34871494,99.1050318 C7.32231979,95.579873 8.53932585,92.0547142 10.0808669,88.6897899 C10.648803,87.087445 11.2167392,85.6453346 11.7846753,84.3634587 C12.2714778,83.1617 12.8394139,81.9599414 13.2450826,80.7581827 C13.731885,79.6365413 14.2186875,78.4347826 14.7054899,77.1529067 C15.1922923,75.951148 15.7602285,74.4289204 16.4092984,72.5862237 C16.814967,71.3844651 17.3017695,70.1827064 17.7074382,69.061065 C18.1131068,67.9394235 18.5999093,66.7376649 19.005578,65.6961407 C21.1150551,61.530044 23.0622648,57.1235955 25.0094745,52.3966781 C26.9566842,47.7498779 28.9038939,43.3434294 30.9322373,39.0972154 C31.9869759,36.8539326 32.9605808,34.690767 34.0153194,32.5276014 C34.9889242,30.3644358 35.962529,28.1211529 36.9361339,25.9579873 C37.7474713,24.2755252 38.3965412,22.593063 38.9644773,20.9106009 C39.5324135,19.2281387 40.1003496,17.4655594 40.7494195,15.4626282 C40.911687,14.9018075 41.1550882,14.3409868 41.4796232,13.8602833 C41.8041581,13.3795799 42.0475593,12.8187592 42.2098268,12.097704 C42.453228,11.136297 42.6966292,10.3351246 42.9400305,9.53395213 C43.1834317,8.73277968 43.4268329,8.01172447 43.6702341,7.21055203 L44.5627052,5.04738642 C44.8061064,4.80703468 45.1306414,4.56668295 45.4551763,4.32633122 C45.7797113,4.08597948 46.0231125,3.7655105 46.2665137,3.36492428 C46.4287812,2.64386908 46.5099149,2.16316561 46.5099149,1.68246214 C46.5099149,1.28187592 46.7533161,0.801172447 47.1589848,0.240351734 C47.4835197,0.0801172447 48.0514559,0 48.7816595,0 C49.5118632,0 49.9986656,0.0801172447 50.1609331,0.240351734 C50.3232005,0.320468979 50.810003,0.640937958 51.5402066,1.28187592 C52.2704102,1.84269663 52.6760789,2.3234001 52.7572127,2.56375183 C53.0006139,3.52515877 53.2440151,4.56668295 53.4062826,5.84855887 C53.56855,7.05031754 53.56855,8.17195896 53.4062826,9.1333659 C53.3251488,9.53395213 53.3251488,9.93453835 53.3251488,10.3351246 C53.4062826,10.7357108 53.3251488,11.136297 53.1628813,11.5368832 C53.0817476,12.097704 52.9194801,12.7386419 52.7572127,13.2994626 C52.5949452,13.8602833 52.4326777,14.5012213 52.351544,15.2222765 C52.1892765,16.1836834 52.1081428,17.0649731 52.1892765,17.9462628 C52.2704102,18.8275525 52.2704102,19.7088422 52.1892765,20.6702491 C52.1081428,21.5515388 51.9458753,22.3527113 51.7836078,23.234001 C51.6213403,24.1152907 51.5402066,24.9164631 51.5402066,25.7977528 C51.3779391,27.2398632 51.2156717,28.6819736 51.0534042,30.0439668 C50.8911367,31.4059599 50.810003,32.7679531 50.7288692,34.1299463 L50.3232005,37.5749878 C50.1609331,38.296043 50.1609331,38.8568637 50.2420668,39.3375672 C50.4043343,39.8182706 50.3232005,40.3790914 50.1609331,41.0200293 C50.0797993,42.221788 49.9175319,43.4235467 49.5929969,44.6253053 C49.268462,45.827064 49.1061945,46.9487054 49.1061945,47.9902296 C48.943927,51.7557401 48.7816595,55.7616023 48.6193921,60.0879336 C48.4571246,64.4142648 47.8891884,68.420127 47.0778511,72.1055203 C47.2401185,73.0669272 47.0778511,73.7879824 46.5910486,74.2686859 C46.1042462,74.7493894 46.0231125,75.4704446 46.3476474,76.3517342 C48.4571246,73.6277479 50.2420668,70.9838788 51.7836078,68.5002443 C53.3251488,66.0166097 55.110091,63.2125061 57.1384345,60.1680508 C59.1667779,57.28383 61.1139876,54.2393747 62.9800636,51.1949194 C64.8461395,48.1504641 66.7122155,44.8656571 68.416024,41.4206155 C70.1198324,38.1358085 71.9859084,35.0913532 74.0142518,32.1270151 C76.0425953,29.1626771 77.9086712,25.9579873 79.6936134,22.4328285 C80.0992821,21.6316561 80.5860845,20.9106009 80.9917532,20.1094284 C81.3974219,19.308256 81.8842243,18.5070835 82.289893,17.5456766 C83.0200967,15.8632145 83.9125678,14.1807523 85.0484401,12.6585247 C86.1843124,11.136297 87.4013185,9.53395213 88.4560571,7.93160723 C88.8617257,7.13043478 89.3485282,6.32926234 89.9164643,5.52808989 C90.4032668,4.6468002 91.0523367,4.08597948 91.7014066,3.84562775 C91.863674,3.68539326 92.2693427,3.60527601 92.8372789,3.60527601 C93.405215,3.60527601 93.8920175,3.52515877 94.2976861,3.44504152 C95.1901573,3.12457255 96.0826284,2.72398632 96.9750995,2.40351734 C97.8675706,2.08304836 98.5166405,2.48363459 99.0034429,3.52515877 C99.1657104,3.84562775 99.1657104,4.48656571 99.0034429,5.28773815 C98.8411754,6.16902785 98.678908,6.97020029 98.5977742,7.85148999 C98.2732393,9.69418661 97.8675706,11.6170005 97.4619019,13.5398144 C97.0562332,15.4626282 96.6505645,17.3854421 96.3260296,19.3883732 C96.0826284,20.7503664 95.7580934,22.1123596 95.3524247,23.4743527 C94.946756,24.8363459 94.6222211,26.198339 94.2165524,27.5603322 C93.8920175,29.0024426 93.6486162,30.444553 93.405215,31.8065462 C93.2429476,33.1685393 93.0806801,34.6106497 92.9184126,36.0527601 C92.7561451,36.4533464 92.5938777,36.9340498 92.4316102,37.4948705 C92.2693427,38.0556913 92.188209,38.616512 92.1070752,39.2574499 C91.7825403,40.8597948 91.4580053,42.542257 91.1334704,44.2247191 C90.8089354,45.9071812 90.5655342,47.5896434 90.4032668,49.111871 C90.2409993,50.3136297 90.1598655,51.5153884 90.0787318,52.7972643 C89.9975981,53.999023 89.9164643,55.3610161 89.5919294,56.7230093 C89.3485282,57.924768 89.105127,59.1265266 88.9428595,60.2481681 C88.780592,61.3698095 88.5371908,62.5715681 88.1315221,63.7733268 C87.8881209,64.9750855 87.6447197,66.1768442 87.4013185,67.3786028 C87.1579173,68.5803615 86.9956498,69.7821202 86.8333823,71.0639961 C86.7522486,72.345872 86.5899811,73.6277479 86.2654462,74.9096238 C85.9409112,76.1914998 85.69751,77.3932584 85.5352425,78.5950171 C85.2107076,81.0786517 84.8861726,83.5622863 84.5616377,85.9658036 C84.2371027,88.369321 83.9125678,90.7728383 83.4257654,93.0962384 C83.1012304,94.938935 82.8578292,96.5412799 82.6955617,97.9032731 C82.5332942,99.2652662 82.5332942,100.627259 82.5332942,102.06937 C82.5332942,102.630191 82.614428,103.191011 82.6955617,103.671715 C82.7766955,104.152418 82.8578292,104.713239 82.8578292,105.27406 C82.6955617,107.998046 82.4521605,110.882267 82.289893,113.766488 C82.3710268,117.211529 81.9653581,120.015633 81.3974219,122.819736 Z" id="XMLID_1485_"></path>
                <path d="M171.062118,67.0086217 C171.384444,67.1698112 171.545607,67.4115956 171.465026,67.6533799 C171.384444,67.8951642 171.465026,68.2175433 171.70677,68.701112 C171.948515,68.7817068 172.029096,68.9428963 171.867933,69.1846807 C171.70677,69.426465 171.465026,69.7488441 171.062118,69.9906284 C170.739792,70.3130075 170.336885,70.5547919 169.933977,70.877171 C169.531069,71.1995501 169.128162,71.4413344 168.886417,71.6831187 C168.564091,72.0860926 168.161184,72.650256 167.758276,73.375609 C167.355369,74.100962 166.952461,74.7457202 166.468972,75.4710732 C165.985483,76.1964262 165.421413,76.7605896 164.857342,77.3247531 C164.293272,77.8889165 163.64862,78.2918904 163.084549,78.5336747 C162.60106,78.6948643 162.03699,79.1784329 161.634082,79.9843807 C161.150593,80.7903285 160.586523,81.4350867 160.022452,81.9992501 C158.491404,83.4499561 157.040937,84.7394725 155.751633,85.7872046 C154.462329,86.8349367 153.011862,87.9632636 151.400232,89.0915904 C150.594417,89.6557539 149.788602,90.2199173 148.821624,90.5422964 C147.854646,90.9452703 147.048831,91.3482442 146.404179,91.7512181 C144.550804,92.7989501 142.697429,93.6048979 141.005218,94.2496561 C139.313006,94.8944143 137.701376,95.2973882 136.331491,95.4585778 C134.800442,95.7003621 133.188812,96.0227412 131.496601,96.2645255 C129.804389,96.5869046 128.192759,96.828689 126.661711,96.9898785 C123.680195,97.0704733 121.182169,96.6674994 119.167631,95.8615516 C117.153093,94.9750091 115.3803,93.8466822 113.607507,92.476571 C112.15704,91.2676494 110.54541,89.978133 108.93378,88.6080218 C107.241569,87.2379106 106.194009,85.5454203 105.629939,83.6111456 C105.227031,81.9186553 105.065868,80.226165 105.307613,78.6142695 C105.549357,77.002374 105.871683,75.4710732 106.435754,74.0203672 C106.999824,72.5696613 107.644476,71.2801448 108.530873,69.9906284 C109.336688,68.7817068 110.142503,67.5727851 110.948318,66.6056478 C111.351225,66.1220791 111.673551,65.5579157 111.915296,65.0743471 C112.15704,64.5907784 112.318203,64.1072097 112.479366,63.6236411 C113.043437,62.8982881 113.76867,62.4147194 114.574485,61.9311508 C115.3803,61.5281769 115.944371,60.9640135 116.347278,60.2386605 C117.475419,59.9968761 118.281234,59.5133075 118.764723,58.7879545 C119.248212,58.0626015 119.892864,57.4178433 120.537517,56.6924903 C121.504495,56.6118955 122.229728,56.3701112 122.713217,55.8865425 C123.196706,55.4835687 123.92194,55.1611896 124.888918,55 C125.130662,55 125.372407,55.0805948 125.614151,55.2417843 C125.855896,55.4029739 126.09764,55.4835687 126.419966,55.4835687 C128.031596,55.2417843 129.562645,55.3223791 131.013112,55.6447582 C132.463579,56.0477321 133.511138,56.7730851 134.316953,57.7402224 C134.236372,59.4327127 134.15579,61.2057978 133.994627,62.9788829 C133.833464,64.7519679 133.752883,66.3638635 133.511138,67.8145695 C131.98009,70.5547919 129.965552,72.8114456 127.548107,74.6651254 C125.130662,76.4382105 122.713217,78.3724852 120.295772,80.3067598 C119.248212,80.6291389 118.120071,80.951518 116.750186,81.1933023 C115.3803,81.4350867 114.171578,81.7574658 112.962855,82.2410344 C113.043437,83.9335247 113.446344,85.2230412 114.090996,85.9483941 C114.81623,86.6737471 115.702626,87.4796949 116.830767,88.4468322 C117.797745,89.4139695 118.845305,90.1393225 120.054027,90.5422964 C121.26275,91.0258651 122.954962,91.1870546 125.050081,91.1064598 C128.031596,90.9452703 131.093693,90.4617016 134.075209,89.6557539 C137.056724,88.8498061 139.957658,87.802074 142.697429,86.5931524 C143.180918,86.5125576 143.986733,86.1901785 144.953711,85.626015 C145.92069,85.0618516 146.968249,84.4976882 148.015809,83.85293 C149.063368,83.2081718 150.030346,82.5634135 150.836161,81.9992501 C151.641976,81.4350867 152.125465,80.951518 152.286628,80.7097337 C152.36721,80.5485441 152.770117,80.1455702 153.495351,79.500812 C154.220584,78.8560538 155.106981,78.1307008 156.073959,77.2441583 C157.040937,76.3576158 158.088496,75.4710732 159.136056,74.5039359 C160.183615,73.5367986 161.070012,72.650256 161.875827,71.8443083 C163.084549,70.5547919 164.293272,69.426465 165.582576,68.4593277 C166.791298,67.4921903 167.597113,66.6862426 167.838858,66.0414844 C168.564091,65.7191053 169.208743,65.3967262 169.853395,65.1549418 C170.498048,64.9131575 170.981537,65.7191053 171.062118,67.0086217 Z M116.508441,69.8294389 C116.347278,70.7159814 116.105534,71.3607396 115.944371,71.9249031 C115.702626,72.4890665 115.541463,73.0532299 115.3803,73.5367986 C115.219137,74.0203672 114.977393,74.5845307 114.735648,75.1486941 C114.493904,75.7128575 114.252159,76.3576158 113.929833,77.1635635 C116.024952,76.1158314 117.878327,74.826315 119.570538,73.1338247 C121.26275,71.5219292 122.87438,69.8294389 124.324847,68.1369486 C124.727755,67.7339747 125.130662,67.3310008 125.452988,67.0086217 C125.775314,66.6862426 126.09764,66.3638635 126.339385,65.8802948 C127.064618,64.8325627 127.386944,63.7042359 127.467526,62.4953142 C127.548107,61.2863926 127.70927,60.0774709 128.192759,59.1103336 C126.500548,59.2715232 125.050081,59.9162814 123.841358,61.0446082 C122.713217,62.1729351 121.504495,63.2206672 120.456935,64.1072097 C119.731701,64.2683993 119.409375,64.5907784 119.489957,64.9937523 C119.570538,65.3967262 119.328794,65.8802948 118.925886,66.2832687 C118.442397,67.250406 117.878327,67.8951642 117.475419,68.3787329 C116.99193,68.8623015 116.669604,69.3458702 116.508441,69.8294389 Z" id="XMLID_1487_"></path>
                <path d="M205.842891,24.7548406 C205.925715,25.0718299 205.842891,25.2303246 205.677241,25.1510773 C205.428767,25.0718299 205.345942,25.1510773 205.345942,25.3888193 C205.345942,25.785056 205.428767,26.1020454 205.511592,26.1812927 C205.677241,26.3397874 205.760066,26.4190348 206.00854,26.6567768 C205.677241,26.7360241 205.345942,26.9737662 205.180293,27.3700029 C204.931818,27.7662396 205.097468,28.1624763 205.511592,28.558713 C205.511592,28.7964551 205.428767,28.9549497 205.180293,28.9549497 C204.931818,28.9549497 204.766169,29.0341971 204.683344,29.1926918 C204.60052,29.5889285 204.517695,29.9851652 204.352045,30.3021546 C204.186396,30.6191439 204.186396,31.094628 204.186396,31.5701121 C204.020746,31.8871014 203.855097,32.2040908 203.689447,32.3625855 C203.523798,32.6003275 203.358148,32.8380696 203.275324,33.1550589 C203.109674,33.392801 203.026849,33.7097903 203.109674,33.9475324 C203.192499,34.2645217 203.192499,34.5022638 203.109674,34.7400058 C202.944025,35.1362425 202.612726,35.5324792 202.198602,35.8494686 C201.784478,36.166458 201.618829,36.7211894 201.784478,37.3551681 C201.701653,37.4344154 201.618829,37.5136628 201.453179,37.5136628 C201.28753,37.5136628 201.204705,37.5929101 201.12188,37.6721575 C200.376458,39.177857 199.631035,40.6043092 198.637138,41.8722666 C197.643241,43.1402241 196.897818,44.487429 196.152396,45.9138811 C194.413076,47.5780753 192.922231,49.4800116 191.67986,51.4611951 C190.437488,53.4423787 188.946643,55.3443149 187.290148,57.0877565 C187.041674,57.4047459 186.710375,57.7217352 186.296251,57.9594773 C185.882127,58.1972193 185.550828,58.5142087 185.302354,58.9896927 C185.136705,59.2274347 184.971055,59.5444241 184.805406,59.7821661 C184.639756,60.0991555 184.391282,60.3368975 184.142808,60.5746396 C183.977158,60.8123816 183.728684,61.129371 183.48021,61.367113 C183.231736,61.6841024 182.900437,61.9218444 182.569138,62.0803391 C182.403488,62.7935652 182.072189,63.2690492 181.492416,63.5067913 C180.995468,63.8237806 180.415694,64.2200173 179.918746,64.6955014 C179.504622,65.0917381 179.090498,65.4879748 178.842024,65.7257169 C178.59355,65.9634589 178.096602,66.2804483 177.516828,66.5974376 C177.01988,66.914427 176.522931,67.3106637 176.108808,67.7861478 C175.694684,68.2616318 175.197736,68.5786212 174.617962,68.8956106 C174.452313,69.2125999 174.286663,69.5295893 174.121014,69.8465787 C173.955364,70.1635681 173.70689,70.4013101 173.458416,70.6390521 C173.292766,71.5900202 172.961467,72.461741 172.630168,73.3334618 C172.216045,74.2051825 171.884746,75.1561507 171.636272,76.0278714 C171.470622,76.3448608 171.387797,76.6618502 171.304973,76.9788396 C171.222148,77.2958289 171.139323,77.533571 170.973674,77.771313 C170.808024,78.6430338 170.476725,79.3562598 169.979777,80.0694859 C169.482828,80.782712 169.151529,81.4959381 168.98588,82.3676589 C168.406107,84.1111004 167.991983,85.854542 167.909158,87.4394888 C167.743509,89.5791671 168.074808,91.0848666 169.068705,92.0358347 C169.979777,92.9868028 171.636272,93.5415342 173.87254,93.7792762 C176.771406,93.5415342 179.421797,92.8283081 181.823715,91.7188453 C184.225633,90.6093825 186.379076,89.4999197 188.449695,88.3112096 C191.182911,86.8055101 193.833303,85.2205632 196.318045,83.556369 C198.802787,81.8921748 201.12188,80.1487333 203.275324,78.1675497 C204.517695,77.1373342 205.677241,76.0278714 206.753963,74.8391613 C207.830685,73.6504511 208.990231,72.6202357 210.232602,71.6692676 C210.315427,71.4315255 210.563901,71.4315255 211.060849,71.6692676 C211.060849,71.1937835 211.226499,70.7975468 211.557798,70.5598048 C212.054746,70.3220627 212.717344,70.0050734 213.379942,69.5295893 C214.125365,69.1333526 214.870788,68.7371159 215.699035,68.4201265 C216.527283,68.1031371 217.35553,67.8653951 218.183777,67.7069004 C219.012025,67.5484057 219.674623,67.5484057 220.337221,67.8653951 C220.337221,68.4201265 220.171571,68.9748579 219.840272,69.5295893 C220.005922,69.688084 220.088747,69.8465787 220.088747,70.0050734 C220.088747,70.1635681 220.254396,70.2428154 220.50287,70.4805574 C219.09485,71.2730309 217.521179,72.461741 215.78186,74.0466879 C214.04254,75.6316347 212.551695,76.8995922 211.309324,77.8505603 C211.143674,77.8505603 211.060849,77.9298077 211.143674,78.0883024 C211.226499,78.246797 211.226499,78.4052917 211.143674,78.4845391 C208.824581,80.7034647 206.257014,82.9223903 203.275324,85.2998106 C200.293633,87.5979835 197.229117,89.6584144 194.081777,91.4811033 C192.922231,92.1943294 191.762684,92.7490608 190.520313,93.2245448 C189.277942,93.7000289 188.035571,94.2547603 186.7932,94.888739 C185.468004,95.4434704 184.059983,95.9982018 182.651962,96.5529332 C181.161117,97.0284173 179.753096,97.424654 178.262251,97.662396 C176.771406,97.9001381 175.363385,98.0586328 173.87254,97.9793854 C172.381694,97.9001381 171.139323,97.662396 169.979777,97.186912 C169.648478,97.0284173 169.317179,96.8699226 169.151529,96.7114279 C168.903055,96.5529332 168.654581,96.3944386 168.323282,96.2359439 C167.577859,95.9189545 166.915261,95.6019651 166.169838,95.4434704 C165.424416,95.2057284 164.927467,94.888739 164.430519,94.4925023 C163.188148,93.3037922 162.442725,91.87734 162.111426,90.2131458 C161.780127,88.5489516 161.780127,86.8055101 161.945777,84.9828212 C162.194251,83.1601323 162.52555,81.4166908 163.105323,79.6732492 C163.685096,77.9298077 164.182045,76.4241082 164.596168,75.1561507 C164.430519,75.1561507 164.264869,75.235398 164.09922,75.3146453 C163.93357,75.47314 163.93357,75.47314 164.016395,75.3938927 L165.341591,73.0164724 C165.258766,72.8579777 165.341591,72.6202357 165.507241,72.3032463 C165.755715,71.9862569 165.83854,71.7485149 165.83854,71.5900202 C166.252663,70.6390521 166.666787,69.7673313 167.080911,68.8163632 C167.495034,67.8653951 167.826333,66.9936743 168.240457,66.0427062 C168.98588,63.9822753 169.731302,62.0010917 170.642375,60.0991555 C171.553447,58.1179719 172.381694,56.2160357 173.127117,54.2348521 C173.541241,53.283884 174.038189,52.4121632 174.535138,51.4611951 C175.032086,50.510227 175.44621,49.6385062 175.943158,48.6875381 C176.937055,46.7063546 177.930952,44.8836657 178.924849,43.1402241 C179.918746,41.3967826 180.912643,39.5740937 181.90654,37.5929101 C183.231736,35.7702212 184.474107,33.868285 185.716478,31.8871014 C186.958849,29.9059179 188.284045,28.083229 189.857715,26.3397874 C190.851612,25.2303246 191.928334,24.2001092 193.08788,23.2491411 C194.247427,22.2981729 195.406973,21.1887101 196.483695,20 C196.732169,20.0792473 196.980643,20.1584947 197.311942,20.3169894 C197.560416,20.4754841 197.808891,20.5547314 198.14019,20.7924734 C198.388664,20.7924734 198.554313,20.7132261 198.637138,20.5547314 C198.719963,20.3962367 198.802787,20.237742 198.968437,20.1584947 C199.962334,20.4754841 201.039056,20.7132261 202.281427,20.7132261 C203.523798,20.7924734 204.517695,21.1094628 205.180293,21.8226889 C205.097468,22.2189256 205.180293,22.6944097 205.511592,23.0906464 C205.842891,23.4868831 205.760066,23.9623671 205.345942,24.3586039 C205.428767,24.5170985 205.511592,24.5963459 205.677241,24.5170985 C205.677241,24.5170985 205.760066,24.5963459 205.842891,24.7548406 Z M198.802787,28.1624763 C199.051262,27.4492502 199.299736,26.8152715 199.465385,26.1020454 C199.631035,25.3888193 199.631035,24.6755932 199.465385,23.8831198 C198.223014,24.2793565 197.311942,24.9925826 196.649344,25.8643034 C196.069571,26.7360241 195.158499,27.5284976 194.164602,28.083229 C193.336354,29.5889285 192.342457,31.0153807 191.100086,32.3625855 C189.857715,33.7097903 189.029468,35.2154898 188.615344,36.9589314 C188.36687,36.9589314 188.20122,37.0381787 188.20122,37.1966734 C187.290148,38.940115 186.461901,40.6835565 185.550828,42.426998 C184.639756,44.0911922 183.728684,45.8346338 182.734787,47.6573227 C182.983261,47.498828 183.231736,47.1025913 183.563035,46.5478599 C183.811509,45.9931285 184.142808,45.6761391 184.639756,45.6761391 C184.474107,46.0723758 184.225633,46.4686125 183.894334,46.8648492 C183.563035,47.261086 183.397385,47.73657 183.397385,48.2913014 C182.651962,49.2422695 182.155014,50.1932376 181.74089,51.2234531 C181.326767,52.2536686 180.912643,53.283884 180.33287,54.2348521 L179.421797,56.1367884 C179.256148,56.4537777 179.090498,56.8500145 178.924849,57.1670038 C178.7592,57.4839932 178.676375,57.8802299 178.7592,58.1972193 C180.001571,56.9292618 181.078292,55.582057 182.072189,54.1556048 C183.066086,52.7291526 184.059983,51.3027004 185.136705,49.8762483 C186.213426,48.4497961 187.290148,47.1025913 188.36687,45.7553864 C189.443591,44.4081816 190.520313,43.0609768 191.51421,41.6345246 C191.762684,41.2382879 192.011158,40.7628038 192.176808,40.2873198 C192.342457,39.8118357 192.508107,39.415599 192.673756,38.940115 C193.170705,38.0683942 193.750478,37.2759208 194.330251,36.5626947 C194.910025,35.7702212 195.406973,34.9777478 195.821097,34.0267797 C196.069571,33.5512956 196.318045,32.9965642 196.649344,32.4418328 C196.897818,31.8871014 197.229117,31.33237 197.560416,30.856886 L198.802787,28.1624763 Z" id="XMLID_1490_"></path>
                <path d="M275.122847,62.8419913 C274.962765,63.2424242 274.642599,63.6428571 274.242392,64.04329 C273.842185,64.4437229 273.762144,64.7640693 274.082309,65.1645022 C273.842185,65.5649351 273.52202,65.965368 273.121813,66.2857143 C272.721606,66.6060606 272.401441,66.9264069 272.001234,67.4069264 C271.841151,67.487013 271.841151,67.5670996 271.921192,67.7272727 C272.081275,67.8874459 272.001234,67.9675325 271.841151,68.047619 C269.760075,69.8095238 267.598958,71.491342 265.277758,73.012987 C265.117675,73.1731602 265.117675,73.3333333 265.197717,73.4134199 C265.3578,73.4935065 265.277758,73.6536797 265.117675,73.8138528 C264.79751,73.974026 264.397303,74.1341991 264.077138,74.2943723 C263.756972,74.4545455 263.516848,74.7748918 263.276724,75.1753247 C262.956558,75.1753247 262.636393,75.3354978 262.47631,75.5757576 C262.236186,75.8160173 261.996062,76.0562771 261.755938,76.2164502 C261.275689,76.5367965 260.7154,76.8571429 260.15511,77.017316 C259.594821,77.2575758 259.114572,77.5779221 258.794407,77.978355 C257.033497,78.8593074 255.112504,79.8203463 253.191511,81.021645 C251.270518,82.2229437 249.1094,82.7034632 246.628118,82.54329 C243.82667,82.3831169 241.665553,81.7424242 240.224808,80.5411255 C238.784063,79.4199134 237.263277,78.0584416 235.742491,76.6168831 C235.342284,77.0974026 234.942077,77.2575758 234.621912,77.0974026 C234.301746,76.8571429 233.981581,77.0974026 233.741457,77.8181818 L232.700919,79.0995671 C232.540836,79.4199134 232.300712,79.8203463 232.060588,80.2207792 C231.820464,80.6212121 231.580339,81.021645 231.420257,81.4220779 C230.299677,83.2640693 229.099057,85.025974 227.818395,86.7077922 C226.537733,88.3095238 225.177029,89.991342 223.816326,91.5930736 C222.775788,92.9545455 221.495126,94.2359307 220.054381,95.4372294 C218.533595,96.6385281 216.932768,97.5194805 215.091816,98 C214.051278,97.7597403 213.250865,97.2792208 212.690575,96.5584416 C212.130285,95.8376623 211.409913,95.1969697 210.609499,94.4761905 C210.209292,94.1558442 209.729044,93.8354978 209.328837,93.6753247 C208.92863,93.4350649 208.608465,93.034632 208.448382,92.3138528 C208.368341,91.9935065 208.368341,91.6731602 208.368341,91.3528139 C208.448382,91.0324675 208.448382,90.7121212 208.448382,90.3917749 C208.288299,88.0692641 208.368341,85.7467532 208.608465,83.4242424 C208.92863,81.1017316 209.328837,78.7792208 209.889127,76.5367965 C210.449416,74.2943723 211.089747,72.1320346 211.730078,70.0497835 C212.450451,67.9675325 213.01074,66.0454545 213.490989,64.2034632 C213.410947,63.8831169 213.250865,63.6428571 213.01074,63.5627706 C212.770616,63.482684 212.770616,63.2424242 212.850658,62.7619048 C213.811154,62.6017316 214.771651,62.3614719 215.812189,62.1212121 C216.852726,61.8809524 217.813223,62.0411255 218.773719,62.6017316 C218.853761,62.7619048 218.853761,62.9220779 218.773719,63.0822511 C218.693678,63.2424242 218.613637,63.4025974 218.613637,63.6428571 C218.773719,63.8030303 218.933802,64.04329 219.013844,64.2034632 C219.093885,64.4437229 219.253968,64.6038961 219.41405,64.7640693 C219.173926,67.0064935 218.773719,69.0887446 218.21343,71.1709957 C217.65314,73.2532468 217.092851,75.2554113 216.45252,77.3376623 C215.89223,79.4199134 215.33194,81.5021645 214.931733,83.5844156 C214.531527,85.7467532 214.371444,88.0692641 214.451485,90.6320346 C217.332975,87.5887446 220.054381,84.1450216 222.535664,80.3809524 C225.016947,76.6168831 227.418188,72.7727273 229.739388,68.8484848 C230.299677,67.8874459 230.779926,67.0865801 231.100091,66.2857143 C231.420257,65.4848485 231.500298,64.5238095 231.420257,63.3225108 C232.140629,63.4025974 232.941043,63.3225108 233.981581,63.0021645 C235.022119,62.6818182 235.982615,62.7619048 236.943112,63.1623377 C237.023153,63.482684 237.023153,63.7229437 236.86307,63.9632035 C236.702987,64.1233766 236.622946,64.3636364 236.542905,64.6038961 C236.622946,64.7640693 236.783029,64.8441558 237.103194,64.8441558 C237.42336,64.8441558 237.583443,64.9242424 237.663484,65.0844156 C237.823567,65.4047619 237.823567,65.7251082 237.663484,65.965368 C237.503401,66.2056277 237.343318,66.4458874 237.263277,66.6060606 C237.183236,66.7662338 237.183236,66.9264069 237.263277,67.0064935 C237.343318,67.0865801 237.42336,67.2467532 237.42336,67.4069264 C237.263277,67.8073593 237.263277,67.9675325 237.42336,67.8874459 C237.583443,67.8073593 237.663484,67.9675325 237.663484,68.3679654 C237.663484,69.1688312 237.903608,69.969697 238.463898,70.9307359 C238.944146,71.8917749 239.584477,72.7727273 240.384891,73.5735931 C241.185304,74.3744589 241.905677,75.0952381 242.786132,75.6558442 C243.586546,76.2164502 244.306918,76.6168831 245.02729,76.6969697 C246.708159,76.8571429 248.308987,76.6969697 249.829773,76.2164502 C251.350559,75.7359307 252.791304,75.0952381 254.152007,74.4545455 C257.993993,72.6125541 261.435772,70.530303 264.397303,68.4480519 C267.358834,66.2857143 270.080241,63.8030303 272.561523,61 C273.361937,61.4004329 273.762144,61.6406926 273.842185,61.7207792 C274.082309,61.961039 274.402475,62.2813853 275.122847,62.8419913 Z" id="XMLID_1493_"></path>
                <path d="M275.345413,63.7823992 C275.507807,64.4956215 275.670201,65.1295969 275.832595,65.6843253 C275.994988,66.2390538 275.913791,66.8730291 275.751398,67.4277576 C275.670201,67.6654983 275.589004,67.9032391 275.42661,68.0617329 C275.264216,68.2202268 275.183019,68.4579675 274.939428,68.6957083 C274.777034,68.8542022 274.614641,69.0919429 274.533444,69.4089306 C274.452247,69.7259183 274.37105,69.963659 274.289853,70.1221529 L273.153096,72.4203136 C272.990702,72.6580544 272.909505,72.975042 272.828308,73.2920297 C272.747111,73.6090174 272.665914,74.005252 272.50352,74.3222397 C272.341127,74.7184743 272.016339,75.1939558 271.691551,75.5901904 C271.285567,75.986425 270.960779,76.5411535 270.717188,77.0958819 C270.554794,77.4921165 270.3924,77.967598 270.311203,78.5223265 C270.230006,78.997808 270.067613,79.4732895 269.905219,79.9487711 C269.499234,81.2167218 269.012053,82.5639195 268.524871,83.990364 C268.037689,85.4168086 267.875296,87.001747 268.037689,88.8244262 C268.118886,89.6961423 268.362477,90.3301177 268.687265,90.8848461 C269.012053,91.3603277 269.499234,91.8358092 269.986416,92.3112907 C272.584717,93.024513 275.183019,93.024513 277.700124,92.3905376 C280.217229,91.7565623 282.734334,91.04334 285.170241,90.3301177 C286.063408,90.01313 286.875377,89.6168954 287.687346,89.2999077 C288.499315,88.98292 289.230088,88.5866854 289.96086,88.1904508 C291.503602,87.3979816 293.12754,86.6847593 294.832676,85.8922901 C296.537811,85.0998209 297.999356,84.3073517 299.298507,83.3563887 C300.435264,82.5639195 301.896809,81.3752156 303.683141,79.7902772 C305.469474,78.2053388 307.4182,76.4619066 309.366926,74.7184743 C311.315653,72.975042 313.183182,71.2316098 314.969514,69.5674244 C316.755847,67.9032391 318.217391,66.6352884 319.354148,65.6843253 C319.760133,65.4465846 320.166118,65.1295969 320.490905,64.8126092 C320.815693,64.4956215 321.140481,64.3371277 321.384072,64.3371277 C322.196041,64.4163746 322.764419,64.7333623 323.251601,65.3673376 C323.738783,65.9220661 323.81998,66.5560414 323.413995,67.1107699 C323.251601,67.3485107 323.170404,67.5070045 323.251601,67.5862514 C323.332798,67.6654983 323.332798,67.9032391 323.089207,68.3787206 C322.926813,68.6957083 322.520829,69.2504368 321.871253,70.1221529 C321.221678,70.9146221 320.490905,71.7863382 319.760133,72.6580544 C319.029361,73.5297705 318.298588,74.4014866 317.649013,75.1147089 C316.999438,75.9071781 316.593453,76.3826596 316.431059,76.6204004 C315.375499,77.4921165 314.157545,78.5223265 312.777197,79.7110303 C311.396849,80.8997341 309.935305,82.1676849 308.392563,83.4356356 C306.849821,84.7035863 305.225883,85.8922901 303.683141,87.001747 C302.059203,88.1112039 300.597658,88.98292 299.298507,89.5376485 C298.080553,90.0923769 296.781402,90.8848461 295.482251,91.6773154 C294.101904,92.5490315 292.721556,93.2622538 291.260011,93.8169822 C290.529239,94.054723 289.879663,94.2924637 289.148891,94.5302045 C288.418119,94.7679453 287.768543,95.005686 287.037771,95.3226737 C286.306998,95.4811676 285.657423,95.7189083 284.926651,96.035896 C284.195878,96.3528837 283.465106,96.5113775 282.81553,96.5906244 C282.409546,96.7491183 281.922364,96.8283652 281.51638,96.7491183 C281.110395,96.6698714 280.623213,96.7491183 280.217229,96.8283652 C279.730047,96.9076121 279.242866,96.986859 278.755684,97.1453529 C278.349699,97.3038467 277.862518,97.3830937 277.294139,97.6208344 C275.994988,97.9378221 274.614641,98.0963159 273.153096,97.9378221 C271.691551,97.7793283 270.473597,97.7000813 269.499234,97.4623406 C269.093249,97.1453529 268.443674,96.9076121 267.550508,96.6698714 C266.657342,96.5113775 266.007766,96.2736368 265.601782,95.8774022 C265.195797,95.4811676 264.871009,95.0849329 264.627418,94.7679453 C264.383828,94.4509576 264.05904,94.054723 263.653055,93.6584884 C263.165874,93.1830068 262.597495,92.7075253 262.19151,92.2320438 C261.704329,91.8358092 261.379541,91.3603277 261.054753,90.9640931 C260.486375,90.01313 260.08039,88.98292 259.999193,87.7149693 C259.917996,86.5262655 259.917996,85.2583148 260.161587,84.069611 C260.323981,82.8809071 260.648769,81.6922033 260.973557,80.5034995 C261.379541,79.3940426 261.785526,78.3638327 262.19151,77.4128696 C262.597495,76.5411535 263.00348,75.7486843 263.328267,74.8769681 C263.653055,74.005252 263.977843,73.2127828 264.465025,72.4995605 C265.358191,70.8353752 266.17016,69.2504368 266.982129,67.8239922 C267.794099,66.3975476 268.687265,65.05035 269.661628,63.8616461 C270.554794,63.7823992 271.44796,63.6239054 272.422324,63.4654115 C273.721474,63.2276708 274.614641,63.3069177 275.345413,63.7823992 Z M278.999275,58.7898432 C278.59329,58.8690901 278.268502,58.7105963 278.187305,58.3936086 C278.024912,58.0766209 277.781321,57.8388802 277.375336,57.7596332 C276.969352,56.967164 276.48217,56.3331887 275.913791,55.7784602 C275.42661,55.2237318 274.858231,54.5897564 274.37105,53.955781 C274.208656,51.974608 274.614641,50.5481634 275.670201,49.4387065 C276.725761,48.4084966 277.700124,47.2990397 278.674487,46.1895828 C279.486456,46.031089 280.136032,45.951842 280.623213,46.031089 C281.110395,46.1103359 281.841167,46.1895828 282.81553,46.1895828 C283.302712,46.5858174 283.708697,47.2197928 283.952287,47.9330151 C284.195878,48.7254843 284.114681,49.4387065 283.708697,50.0726819 C283.6275,50.2311758 283.546303,50.3104227 283.383909,50.3896696 C283.221515,50.4689165 283.140318,50.5481634 283.059121,50.7066573 C282.81553,51.1028919 282.57194,51.5783734 282.409546,52.0538549 C282.247152,52.5293365 282.003561,52.9255711 281.75997,53.4010526 L280.866804,54.4312626 C280.46082,54.985991 280.136032,55.5407195 280.054835,56.0954479 C279.892441,56.5709294 279.64885,57.0464109 279.242866,57.5218925 C279.242866,57.7596332 279.161669,57.997374 279.080472,58.1558678 C278.918078,58.3936086 278.918078,58.5521024 278.999275,58.7898432 Z" id="XMLID_1495_"></path>
                <path d="M339.286372,71.9276808 C337.895629,72.8852868 336.341269,73.7630923 334.623293,74.7206983 C332.905316,75.6783042 331.432765,76.7157107 330.205639,77.9127182 C327.833195,80.1471322 325.54256,82.3815461 323.251925,84.7755611 C320.961289,87.0897756 318.752463,89.563591 316.543636,92.117207 C315.480127,93.3142145 314.416617,94.5112219 313.2713,95.7082294 C312.125982,96.9052369 310.817048,97.8628429 309.344496,98.6608479 C308.608221,98.2618454 308.280987,97.7032419 308.199179,96.9850374 C308.11737,96.2668329 307.708328,95.6284289 307.053861,95.0698254 C306.317585,94.9102244 305.908543,94.5112219 305.663118,93.9526185 C305.417693,93.394015 305.417693,92.59601 305.58131,91.798005 C306.317585,89.084788 307.381095,86.5311721 309.017263,84.2169576 C310.571622,81.9027431 312.044174,79.3491272 313.353108,76.7157107 C314.089384,75.5187032 314.662043,74.2418953 315.234701,72.9650873 C315.80736,71.6084788 316.380019,70.3316708 316.870869,68.9750623 C317.443528,67.3790524 317.934379,65.7830424 318.179804,64.1870324 C318.425229,62.5910224 318.752463,60.9950125 319.079696,59.2394015 C319.570547,59.2394015 320.061397,59.2394015 320.552247,59.319202 C320.961289,59.3990025 321.45214,59.2394015 321.861182,59 C322.106607,59.478803 322.597458,59.798005 323.333733,59.798005 C324.070009,59.8778055 324.397242,60.1970075 324.479051,60.755611 C324.560859,61.4738155 324.560859,62.19202 324.560859,62.9900249 C324.479051,63.7880299 324.397242,64.6658354 324.233626,65.6234414 C324.233626,65.7032419 324.151817,65.7830424 324.070009,65.9426434 C323.906392,66.1022444 323.906392,66.1820449 323.906392,66.4214464 C323.906392,66.5810474 323.9882,66.8204489 324.070009,67.0598504 C324.151817,67.2992519 324.151817,67.5386534 324.070009,67.6982544 C323.906392,68.7356608 323.415542,69.8528678 322.679266,71.2094763 C321.94299,72.5660848 321.45214,73.7630923 321.206715,74.9600998 C320.879481,76.1571072 320.388631,77.2743142 319.89778,78.3117207 C319.40693,79.3491272 318.916079,80.2269327 318.425229,81.0249377 C320.879481,78.7107232 323.49735,76.4763092 326.442452,74.3216958 C329.305747,72.1670823 332.169041,70.0922693 334.950526,68.2568579 C336.177652,68.0174564 337.404778,67.5386534 338.550096,66.9800499 C339.695414,66.4214464 341.004348,66.1820449 342.395091,66.5012469 C342.558708,66.5012469 342.96775,66.5810474 343.704025,66.8204489 C344.440301,67.0598504 344.849343,67.2194514 345.176577,67.3790524 C345.340193,67.5386534 345.585619,67.9376559 345.912852,68.4962594 C346.240086,69.0548628 346.403703,69.5336658 346.485511,69.8528678 C346.649128,70.7306733 346.567319,71.6084788 346.240086,72.5660848 C345.912852,73.5236908 345.585619,74.4014963 345.340193,75.2793017 C345.176577,75.8379052 344.931151,76.4763092 344.603918,77.1147132 C344.276684,77.7531172 344.031259,78.3915212 343.785834,78.9501247 L341.986049,82.6209476 C341.249773,83.8977556 340.595306,85.0947631 340.022647,86.2917706 C339.449988,87.4887781 338.959138,88.6857855 338.550096,89.9625935 C338.386479,90.7605985 338.304671,91.638404 338.386479,92.59601 C338.468288,93.553616 338.795521,94.1122195 339.286372,94.3516209 C339.695414,94.5112219 340.186264,94.5112219 340.758923,94.2718204 C341.331582,94.032419 341.822432,93.872818 342.231474,93.713217 C343.704025,93.3142145 345.01296,92.755611 346.076469,92.0374065 C347.139978,91.319202 348.285296,90.7605985 349.512422,90.2817955 C352.130291,88.446384 354.829968,86.6109726 357.611454,84.9351621 C360.392939,83.2593516 363.092617,81.4239401 365.628677,79.4289277 C367.264845,78.0723192 369.06463,76.6359102 371.028032,75.0399002 C372.991433,73.4438903 374.873027,71.8478803 376.591003,70.0922693 C377.081854,69.6134663 377.654512,69.0548628 378.145363,68.4962594 C378.636213,67.9376559 379.208872,67.4588529 379.863339,67.0598504 C380.435998,66.6608479 381.172274,66.3416459 381.908549,66.2618454 C382.644825,66.1022444 383.462909,66.2618454 384.362801,66.7406484 C384.280993,67.1396509 384.117376,67.4588529 383.871951,67.5386534 C383.626526,67.6982544 383.381101,67.9376559 383.217484,68.2568579 C383.626526,68.3366584 383.871951,68.4962594 383.953759,68.8154613 C384.035568,69.1346633 384.117376,69.3740648 384.280993,69.6134663 C383.871951,70.0124688 383.462909,70.6508728 383.135675,71.3690773 C382.808442,72.1670823 382.3994,72.8054863 381.908549,73.4438903 C381.33589,74.2418953 380.517806,74.9600998 379.454297,75.6783042 C378.472596,76.3965087 377.490896,77.1945137 376.509195,78.0723192 L373.891326,80.3865337 C373.482284,80.7855362 372.991433,81.1845387 372.500583,81.4239401 C372.009733,81.6633416 371.600691,81.9825436 371.10984,82.4613466 L367.592079,85.2543641 C365.874102,86.5311721 364.074318,87.7281796 362.192724,88.925187 C360.311131,90.042394 358.429538,91.2394015 356.629753,92.436409 C355.402627,93.234414 354.011884,94.1122195 352.457524,95.1496259 C350.903165,96.1870324 349.348805,96.9052369 347.876254,97.4638404 C347.54902,97.6234414 347.139978,97.7032419 346.649128,97.7032419 C346.158277,97.7032419 345.749235,97.7830424 345.258385,97.9426434 C344.440301,98.2618454 343.622217,98.5810474 342.640516,98.8204489 C341.658815,99.0598504 340.595306,99.0598504 339.36818,98.8204489 C338.795521,98.6608479 338.222862,98.3416459 337.895629,98.0224439 C337.486587,97.6234414 337.077545,97.2244389 336.504886,96.8254364 C335.27776,95.9476309 334.214251,95.0698254 333.396167,94.19202 C332.496274,93.3142145 332.169041,92.0374065 332.250849,90.2817955 C332.332657,88.286783 332.741699,86.4513716 333.396167,84.6159601 C334.132442,82.7805486 334.868718,81.1845387 335.604994,79.6683292 C336.341269,78.3117207 336.995736,77.0349127 337.650204,75.8379052 C338.141054,74.3216958 338.713713,73.1246883 339.286372,71.9276808 Z" id="XMLID_1498_"></path>
                <path d="M474.863553,122.819736 C474.133349,123.060088 473.484279,123.060088 472.754076,122.819736 C472.023872,122.579384 471.374802,122.41915 470.644598,122.41915 C470.23893,121.858329 469.752127,121.217391 469.184191,120.656571 C468.697389,120.09575 468.372854,119.454812 468.29172,118.653639 C468.129453,116.971177 468.210586,115.208598 468.535121,113.365901 C468.859656,111.523205 469.103057,109.760625 469.346459,108.078163 C469.58986,106.395701 469.670994,104.713239 469.58986,103.191011 C469.508726,101.668784 469.58986,100.146556 469.833261,98.544211 C469.995529,97.1021006 470.157796,95.900342 470.23893,94.938935 C470.320064,93.9775281 470.482331,92.8558867 470.644598,91.4938935 C471.131401,88.369321 471.53707,85.3248657 471.780471,82.5207621 C471.942738,81.0786517 472.186139,79.6365413 472.591808,78.2745481 C472.916343,76.912555 473.240878,75.4704446 473.484279,74.0283341 C473.646547,73.2271617 473.72768,72.5061065 473.646547,71.704934 C473.565413,70.9037616 473.646547,70.1025892 473.808814,69.3014167 C474.214483,66.9780166 474.701285,64.7347338 475.269221,62.4914509 C475.837158,60.2481681 476.32396,58.0048852 476.729629,55.6814851 C477.135297,53.1978505 477.540966,50.7943332 477.784367,48.3908158 C478.027769,45.9872985 478.352304,43.5837811 478.839106,41.1802638 C479.325908,38.8568637 479.731577,36.5334636 480.056112,34.1299463 C480.380647,31.7264289 480.786316,29.4030288 481.435386,27.2398632 C481.922188,24.9164631 482.490124,22.6731803 482.895793,20.3497802 C483.382595,18.1064973 483.788264,15.8632145 484.275066,13.6199316 C483.869398,14.1006351 483.463729,14.6614558 483.139194,15.3023937 C482.814659,15.8632145 482.571258,16.5041524 482.40899,17.0649731 C481.678787,18.4269663 481.029717,19.628725 480.299513,20.6702491 C479.56931,21.7918906 479.001373,22.913532 478.433437,24.1152907 C477.865501,25.3170493 477.216431,26.4386908 476.567361,27.5603322 C475.512623,29.2427943 474.457884,30.9252565 473.403146,32.5276014 C472.348407,34.1299463 471.212535,35.8124084 470.076662,37.4147533 C469.670994,37.975574 469.346459,38.616512 469.103057,39.1773327 C468.859656,39.7381534 468.616255,40.3790914 468.29172,41.0200293 C467.318115,43.0229604 466.34451,44.8656571 465.208638,46.6282364 C464.153899,48.3908158 463.018027,50.2335125 461.882155,51.9960918 C460.827416,53.8387885 459.772678,55.6814851 458.717939,57.3639472 C457.663201,59.0464094 456.527328,60.8089888 455.310322,62.6516854 C454.82352,63.5329751 454.255584,64.4142648 453.768781,65.2955545 C453.281979,66.1768442 452.632909,67.1382511 451.983839,68.0195408 C451.172502,69.1411822 450.523432,70.1827064 449.874362,71.3043478 C449.306426,72.345872 448.495088,73.4675134 447.683751,74.5891549 L446.629012,75.8710308 C446.385611,76.271617 446.14221,76.7523205 445.898809,77.2330239 C445.655407,77.7137274 445.412006,78.1143136 445.168605,78.5950171 L443.464796,81.1587689 C442.89686,81.9599414 442.328924,82.6809966 441.923255,83.4020518 C441.517587,84.123107 440.787383,84.5236932 439.813778,84.6038105 C439.083575,84.6839277 438.596772,84.6038105 438.10997,84.2833415 C437.704301,83.9628725 437.217499,83.6424035 436.81183,83.3219345 C436.406161,83.0815828 435.919359,82.8412311 435.432556,82.6008793 C434.945754,82.3605276 434.621219,82.0400586 434.458952,81.6394724 C434.134417,79.7967758 433.972149,77.8739619 434.134417,75.8710308 C434.296684,73.8680997 434.458952,71.9452858 434.783487,69.9423547 C435.108022,67.9394235 435.351423,65.9364924 435.675958,64.0136786 C436.000493,62.0908647 436.16276,60.1680508 436.16276,58.1651197 C436.16276,56.5627748 436.16276,54.7200782 436.243894,52.7972643 C436.325028,50.7943332 436.487295,48.8715193 436.81183,47.0288227 C436.892964,46.147533 437.055231,45.3463605 437.298632,44.4650708 C437.542034,43.5837811 437.623167,42.7826087 437.623167,41.901319 C437.785435,38.616512 438.028836,35.3317049 438.272237,32.0468979 C438.515639,28.7620909 438.840173,25.3971666 439.326976,22.0322423 C438.434505,23.4743527 437.785435,24.9965804 437.217499,26.5989253 C436.730696,28.2012702 436.081626,29.803615 435.432556,31.4059599 C434.458952,33.4088911 433.647614,35.4118222 432.836277,37.5749878 C432.02494,39.7381534 431.213602,41.7410845 430.239997,43.7440156 C429.753195,44.8656571 429.266392,45.9071812 428.941858,47.0288227 C428.617323,48.0703468 428.13052,49.1919883 427.643718,50.3136297 C427.156915,51.1949194 426.588979,52.0762091 426.021043,53.037616 C425.453107,53.999023 424.966304,55.0405471 424.641769,56.1621886 C424.398368,56.8832438 424.154967,57.604299 423.911566,58.3253542 C423.668165,59.1265266 423.424763,59.8475818 423.100228,60.4885198 C422.775693,61.3698095 422.370025,62.1709819 421.883222,62.9721544 C421.39642,63.7733268 420.990751,64.6546165 420.503949,65.6160234 C420.341681,66.0166097 420.179414,66.4973131 420.09828,67.0581339 C420.017146,67.5388373 419.854879,68.099658 419.611478,68.5803615 C419.44921,68.9809477 419.286943,69.4616512 419.124675,70.0224719 C418.962408,70.5832926 418.881274,71.0639961 418.637873,71.4645823 C418.475605,71.7850513 418.232204,72.1856375 418.069937,72.5061065 C417.826536,72.8265755 417.664268,73.2271617 417.502001,73.5476307 C417.177466,74.3488031 416.934064,74.9096238 416.771797,75.3102101 C416.609529,75.7107963 416.528396,76.1113825 416.447262,76.4318515 C416.366128,76.7523205 416.203861,77.0727894 415.96046,77.3932584 C415.717058,77.7137274 415.392523,78.2745481 414.824587,79.0757206 C414.581186,79.876893 414.337785,80.5979482 414.01325,81.4792379 C413.688715,82.3605276 413.445314,83.0815828 413.120779,83.8827553 C412.796244,84.6038105 412.390575,85.2447484 411.984906,85.9658036 C411.579238,86.6868588 411.173569,87.407914 410.930168,88.2090865 C410.605633,89.3307279 410.281098,90.4523693 410.037697,91.5740107 C409.794296,92.6956522 409.469761,93.8974108 408.982958,95.0991695 C408.658423,96.0605765 408.333888,96.8617489 408.171621,97.6629213 C407.92822,98.4640938 407.603685,99.2652662 407.198016,100.226673 C407.116882,100.467025 407.035748,100.787494 407.035748,101.027846 C407.035748,101.348315 406.954615,101.588666 406.792347,101.829018 C406.63008,102.229604 406.386679,102.710308 406.224411,103.110894 C405.98101,103.51148 405.818742,103.992184 405.737609,104.39277 L404.601736,108.398632 C404.439469,108.799218 404.277201,109.279922 404.196068,109.680508 C404.114934,110.081094 403.952666,110.481681 403.790399,110.802149 C403.628131,111.282853 403.303597,111.843674 402.73566,112.324377 C402.248858,112.805081 402.005457,113.446019 402.08659,114.086957 C401.599788,114.407426 401.112986,114.888129 400.788451,115.529067 C400.463916,116.170005 399.977113,116.730826 399.328043,117.131412 C399.003508,117.371764 398.516706,117.531998 397.867636,117.612115 C397.2997,117.692233 396.65063,117.692233 396.082694,117.692233 C395.514758,117.612115 394.946822,117.531998 394.378885,117.291646 C393.892083,117.051295 393.567548,116.810943 393.486414,116.490474 C393.405281,116.330239 393.567548,115.849536 393.973217,115.128481 C394.378885,114.407426 394.622287,113.766488 394.784554,113.285784 C394.946822,112.564729 395.190223,112.003908 395.433624,111.443087 C395.677025,110.882267 395.920426,110.321446 396.244961,109.840743 C397.624235,106.235467 398.841241,102.630191 399.814846,99.1050318 C400.788451,95.4997557 402.005457,92.0547142 403.546998,88.6897899 C404.114934,87.087445 404.68287,85.6453346 405.250806,84.3634587 C405.737609,83.1617 406.305545,81.9599414 406.711213,80.7581827 C407.198016,79.6365413 407.684818,78.4347826 408.171621,77.1529067 C408.658423,75.951148 409.226359,74.4289204 409.875429,72.5862237 C410.281098,71.3844651 410.7679,70.1827064 411.173569,69.061065 C411.579238,67.9394235 412.06604,66.7376649 412.471709,65.6961407 C414.581186,61.530044 416.528396,57.1235955 418.475605,52.3966781 C420.422815,47.7498779 422.370025,43.3434294 424.398368,39.0972154 C425.453107,36.8539326 426.426712,34.690767 427.48145,32.5276014 C428.455055,30.3644358 429.42866,28.1211529 430.402265,25.9579873 C431.213602,24.2755252 431.862672,22.593063 432.430608,20.9106009 C432.998544,19.2281387 433.566481,17.4655594 434.21555,15.4626282 C434.377818,14.9018075 434.621219,14.3409868 434.945754,13.8602833 C435.270289,13.3795799 435.51369,12.8187592 435.675958,12.097704 C435.919359,11.136297 436.16276,10.3351246 436.406161,9.53395213 C436.649563,8.73277968 436.892964,8.01172447 437.136365,7.21055203 L438.028836,5.04738642 C438.272237,4.80703468 438.596772,4.56668295 438.921307,4.32633122 C439.245842,4.08597948 439.489243,3.7655105 439.732645,3.36492428 C439.894912,2.64386908 439.976046,2.16316561 439.976046,1.68246214 C439.976046,1.28187592 440.219447,0.801172447 440.625116,0.240351734 C440.949651,0.0801172447 441.517587,0 442.24779,0 C442.977994,0 443.464796,0.0801172447 443.627064,0.240351734 C443.789331,0.320468979 444.276134,0.640937958 445.006337,1.28187592 C445.736541,1.84269663 446.14221,2.3234001 446.223344,2.56375183 C446.466745,3.52515877 446.710146,4.56668295 446.872413,5.84855887 C447.034681,7.05031754 447.034681,8.17195896 446.872413,9.1333659 C446.79128,9.53395213 446.79128,9.93453835 446.79128,10.3351246 C446.872413,10.7357108 446.79128,11.136297 446.629012,11.5368832 C446.547878,12.097704 446.385611,12.7386419 446.223344,13.2994626 C446.061076,13.8602833 445.898809,14.5012213 445.817675,15.2222765 C445.655407,16.1836834 445.574274,17.0649731 445.655407,17.9462628 C445.736541,18.8275525 445.736541,19.7088422 445.655407,20.6702491 C445.574274,21.5515388 445.412006,22.3527113 445.249739,23.234001 C445.087471,24.1152907 445.006337,24.9164631 445.006337,25.7977528 C444.84407,27.2398632 444.681803,28.6819736 444.519535,30.0439668 C444.357268,31.4059599 444.276134,32.7679531 444.195,34.1299463 L443.789331,37.5749878 C443.627064,38.296043 443.627064,38.8568637 443.708198,39.3375672 C443.789331,39.8182706 443.789331,40.3790914 443.627064,41.0200293 C443.54593,42.221788 443.383663,43.4235467 443.059128,44.6253053 C442.734593,45.827064 442.572325,46.9487054 442.572325,47.9902296 C442.410058,51.7557401 442.24779,55.7616023 442.085523,60.0879336 C441.923255,64.4142648 441.355319,68.420127 440.543982,72.1055203 C440.706249,73.0669272 440.543982,73.7879824 440.05718,74.2686859 C439.570377,74.7493894 439.489243,75.4704446 439.813778,76.3517342 C441.923255,73.6277479 443.708198,70.9838788 445.249739,68.5002443 C446.79128,66.0166097 448.576222,63.2125061 450.604565,60.1680508 C452.632909,57.28383 454.580118,54.2393747 456.446194,51.1949194 C458.31227,48.1504641 460.178346,44.8656571 461.882155,41.4206155 C463.585963,38.1358085 465.452039,35.0913532 467.480383,32.1270151 C469.508726,29.1626771 471.374802,25.9579873 473.159744,22.4328285 C473.565413,21.6316561 474.052215,20.9106009 474.457884,20.1094284 C474.863553,19.308256 475.350355,18.5070835 475.756024,17.5456766 C476.486228,15.8632145 477.378699,14.1807523 478.514571,12.6585247 C479.650443,11.136297 480.867449,9.53395213 481.922188,7.93160723 C482.327857,7.13043478 482.814659,6.32926234 483.382595,5.52808989 C483.869398,4.6468002 484.518468,4.08597948 485.167537,3.84562775 C485.329805,3.68539326 485.735474,3.60527601 486.30341,3.60527601 C486.871346,3.60527601 487.358148,3.52515877 487.763817,3.44504152 C488.656288,3.12457255 489.548759,2.72398632 490.44123,2.40351734 C491.333701,2.08304836 491.982771,2.48363459 492.469574,3.52515877 C492.631841,3.84562775 492.631841,4.48656571 492.469574,5.28773815 C492.307306,6.16902785 492.145039,6.97020029 492.063905,7.85148999 C491.73937,9.69418661 491.333701,11.6170005 490.928033,13.5398144 C490.522364,15.4626282 490.116695,17.3854421 489.79216,19.3883732 C489.548759,20.7503664 489.224224,22.1123596 488.818556,23.4743527 C488.412887,24.8363459 488.088352,26.198339 487.682683,27.5603322 C487.358148,29.0024426 487.114747,30.444553 486.871346,31.8065462 C486.709078,33.1685393 486.546811,34.6106497 486.384543,36.0527601 C486.222276,36.4533464 486.060009,36.9340498 485.897741,37.4948705 C485.735474,38.0556913 485.65434,38.616512 485.573206,39.2574499 C485.248671,40.8597948 484.924136,42.542257 484.599601,44.2247191 C484.275066,45.9071812 484.031665,47.5896434 483.869398,49.111871 C483.70713,50.3136297 483.625996,51.5153884 483.544863,52.7972643 C483.463729,53.999023 483.382595,55.3610161 483.05806,56.7230093 C482.814659,57.924768 482.571258,59.1265266 482.40899,60.2481681 C482.246723,61.3698095 482.003322,62.5715681 481.597653,63.7733268 C481.354252,64.9750855 481.110851,66.1768442 480.867449,67.3786028 C480.624048,68.5803615 480.461781,69.7821202 480.299513,71.0639961 C480.218379,72.345872 480.056112,73.6277479 479.731577,74.9096238 C479.407042,76.1914998 479.163641,77.3932584 479.001373,78.5950171 C478.676838,81.0786517 478.352304,83.5622863 478.027769,85.9658036 C477.703234,88.369321 477.378699,90.7728383 476.891896,93.0962384 C476.567361,94.938935 476.32396,96.5412799 476.161693,97.9032731 C475.999425,99.2652662 475.999425,100.627259 475.999425,102.06937 C475.999425,102.630191 476.080559,103.191011 476.161693,103.671715 C476.242826,104.152418 476.32396,104.713239 476.32396,105.27406 C476.161693,107.998046 475.918291,110.882267 475.756024,113.766488 C475.918291,117.211529 475.512623,120.015633 474.863553,122.819736 Z" id="XMLID_1500_"></path>
                <path d="M522.892587,77.8 C521.750351,79.4 520.363349,81.16 518.731583,83.08 C517.099817,85 515.386463,86.76 513.754696,88.28 C512.449284,89.56 511.062282,90.84 509.675281,92.2 C508.28828,93.56 506.656514,94.52 504.698394,95.24 C503.719335,95.56 502.821863,95.64 502.00598,95.32 C501.190097,95 500.455802,94.76 499.721508,94.52 C498.17133,93.96 497.029093,92.68 496.294799,90.84 C495.478916,90.28 494.989386,89.4 494.826209,88.44 C494.581444,87.4 494.581444,86.36 494.663033,85.16 C494.744621,84.04 494.907797,82.84 495.234151,81.8 C495.560504,80.68 495.805269,79.72 496.050034,78.84 C498.089741,74.6 500.700567,71 504.045688,68.2 C507.390808,65.4 511.062282,63 515.304874,61 C515.631228,61.16 515.957581,61.24 516.283934,61.16 C516.610287,61.08 516.93664,61.16 517.262994,61.32 C517.42617,61.4 517.589347,61.48 517.752524,61.64 C517.9157,61.8 518.078877,61.88 518.242053,61.96 C518.649995,62.12 519.139525,62.28 519.710643,62.36 C520.281761,62.44 520.771291,62.6 521.179232,62.76 C521.750351,62.92 522.23988,63.24 522.647822,63.8 C522.974175,64.28 523.382117,64.68 523.790058,64.92 C523.953235,65.08 524.034823,65.24 523.953235,65.32 C523.871647,65.4 523.790058,65.56 523.790058,65.72 C525.095471,65 526.645649,64.92 528.359004,65.24 C530.072358,65.64 531.214594,66.44 531.785712,67.64 C532.356831,69 532.520007,70.6 532.030477,72.52 C531.622536,74.36 531.133006,76.04 530.561888,77.4 C530.317123,78.12 529.99077,78.76 529.664416,79.4 C529.338063,80.04 529.01171,80.68 528.766945,81.4 C528.52218,82.2 528.277415,82.92 528.03265,83.8 C527.787885,84.6 527.54312,85.4 527.216767,86.2 C526.972002,86.92 526.727237,87.64 526.400884,88.44 C526.156119,89.24 525.992943,90.12 525.911354,90.92 C525.829766,91.8 525.911354,92.6 526.074531,93.32 C526.237708,94.04 526.645649,94.6 527.216767,95.08 C528.52218,95.48 529.746005,95.48 530.969829,95.08 C532.112066,94.68 533.33589,94.12 534.559715,93.56 C536.925776,92.52 539.047072,91.48 541.005191,90.52 C542.963311,89.48 544.839842,88.28 546.553196,86.84 C549.164022,84.6 551.611671,82.6 553.977732,80.68 C556.343793,78.84 558.628266,76.76 560.912738,74.52 C561.239091,74.04 561.565445,73.64 561.81021,73.48 C562.054974,73.32 562.544504,73 563.115622,72.6 C563.278799,71.88 563.768329,71.4 564.584212,71.08 C565.400095,70.76 566.297566,70.04 567.276626,68.92 C567.766156,68.36 568.255686,67.8 568.745216,67.24 C569.153157,66.76 569.887452,66.6 570.9481,66.84 C570.866512,67.24 571.029688,67.48 571.43763,67.48 C571.519218,67.88 571.519218,68.04 571.43763,67.88 C571.356042,67.72 571.274453,67.8 571.192865,68.12 C571.43763,68.36 571.600806,68.6 571.682395,68.84 C571.763983,69.08 572.008748,69.24 572.498278,69.32 C572.335101,70.28 571.92716,70.92 571.192865,71.32 C570.45857,71.72 569.805864,72.12 569.234746,72.68 C569.071569,72.84 568.826804,73.08 568.663627,73.32 C568.418862,73.56 568.337274,73.8 568.337274,74.12 C566.787096,76.12 565.236918,77.88 563.605152,79.4 C562.054974,81 560.504797,82.52 558.87303,83.96 C557.322853,85.4 555.691087,86.84 554.05932,88.28 C552.427554,89.72 550.632611,91.32 548.837669,93.16 C547.532256,94.04 546.226843,94.92 544.92143,95.8 C543.616017,96.68 542.229016,97.56 540.760426,98.28 C539.536602,98.52 538.394365,98.92 537.415306,99.4 C536.436246,99.88 535.29401,100.28 534.070185,100.6 C533.988597,100.6 533.907008,100.76 533.907008,101 C532.927949,100.92 531.867301,100.84 530.725064,100.84 C529.582828,100.76 528.52218,100.6 527.54312,100.12 C526.156119,99.56 525.013883,98.84 524.116412,98.04 C523.21894,97.24 522.403057,96.2 521.668762,94.68 C520.934468,93.48 520.526526,92.2 520.444938,90.68 C520.281761,89.24 520.281761,87.8 520.444938,86.36 C520.608114,84.92 520.852879,83.48 521.260821,82.04 C521.913527,80.28 522.321469,79 522.892587,77.8 Z M505.759042,85.32 C508.369868,82.84 510.817517,80.2 513.10199,77.4 C515.386463,74.6 517.589347,71.8 519.87382,68.92 C519.792231,68.36 519.629055,67.8 519.465878,67.24 C519.302701,66.76 519.139525,66.2 518.976348,65.56 C518.568407,65.8 517.997288,65.96 517.42617,66.04 C516.855052,66.12 516.283934,66.36 515.875992,66.68 C515.631228,66.84 515.386463,67.08 515.304874,67.32 C515.141698,67.56 514.978521,67.8 514.733756,67.96 C514.488991,68.12 514.162638,68.28 513.836285,68.44 C513.509932,68.6 513.183578,68.76 512.938813,68.92 C511.714989,69.72 510.654341,70.44 509.756869,71.24 C508.859398,72.04 507.880338,72.84 506.982867,73.8 C506.411749,74.52 505.840631,75.08 505.432689,75.64 C505.024748,76.2 504.616806,76.84 504.290453,77.48 C504.127276,77.72 503.9641,77.96 503.800923,78.28 C503.637746,78.52 503.47457,78.76 503.311393,79.08 C501.679627,81.8 500.700567,85.24 500.455802,89.48 C501.598039,89.08 502.577098,88.44 503.47457,87.72 C504.045688,87 504.861571,86.2 505.759042,85.32 Z" id="XMLID_1502_"></path>
                <path d="M591.145155,71.9276808 C589.754412,72.8852868 588.200052,73.7630923 586.482076,74.7206983 C584.764099,75.6783042 583.291548,76.7157107 582.064422,77.9127182 C579.691978,80.1471322 577.401343,82.3815461 575.110708,84.7755611 C572.820072,87.0897756 570.611246,89.563591 568.402419,92.117207 C567.33891,93.3142145 566.2754,94.5112219 565.130083,95.7082294 C563.984765,96.9052369 562.675831,97.8628429 561.203279,98.6608479 C560.467004,98.2618454 560.13977,97.7032419 560.057962,96.9850374 C559.976153,96.2668329 559.567111,95.6284289 558.912644,95.0698254 C558.176368,94.9102244 557.767326,94.5112219 557.521901,93.9526185 C557.276476,93.394015 557.276476,92.59601 557.440093,91.798005 C558.176368,89.084788 559.239878,86.5311721 560.876046,84.2169576 C562.430405,81.9027431 563.902957,79.3491272 565.211891,76.7157107 C565.948167,75.5187032 566.520826,74.2418953 567.093484,72.9650873 C567.666143,71.6084788 568.238802,70.3316708 568.729652,68.9750623 C569.302311,67.3790524 569.793162,65.7830424 570.038587,64.1870324 C570.284012,62.5910224 570.611246,60.9950125 570.938479,59.2394015 C571.42933,59.2394015 571.92018,59.2394015 572.41103,59.319202 C572.820072,59.3990025 573.310923,59.2394015 573.719965,59 C573.96539,59.478803 574.456241,59.798005 575.192516,59.798005 C575.928792,59.8778055 576.256025,60.1970075 576.337834,60.755611 C576.419642,61.4738155 576.419642,62.19202 576.419642,62.9900249 C576.337834,63.7880299 576.256025,64.6658354 576.092409,65.6234414 C576.092409,65.7032419 576.0106,65.7830424 575.928792,65.9426434 C575.765175,66.1022444 575.765175,66.1820449 575.765175,66.4214464 C575.765175,66.5810474 575.846983,66.8204489 575.928792,67.0598504 C576.0106,67.2992519 576.0106,67.5386534 575.928792,67.6982544 C575.765175,68.7356608 575.274325,69.8528678 574.538049,71.2094763 C573.801773,72.5660848 573.310923,73.7630923 573.065498,74.9600998 C572.738264,76.1571072 572.247414,77.2743142 571.756563,78.3117207 C571.265713,79.3491272 570.774862,80.2269327 570.284012,81.0249377 C572.738264,78.7107232 575.356133,76.4763092 578.301235,74.3216958 C581.16453,72.1670823 584.027824,70.0922693 586.809309,68.2568579 C588.036435,68.0174564 589.263561,67.5386534 590.408879,66.9800499 C591.554197,66.4214464 592.863131,66.1820449 594.253874,66.5012469 C594.417491,66.5012469 594.826533,66.5810474 595.562808,66.8204489 C596.299084,67.0598504 596.708126,67.2194514 597.03536,67.3790524 C597.198976,67.5386534 597.444402,67.9376559 597.771635,68.4962594 C598.098869,69.0548628 598.262486,69.5336658 598.344294,69.8528678 C598.507911,70.7306733 598.426102,71.6084788 598.098869,72.5660848 C597.771635,73.5236908 597.444402,74.4014963 597.198976,75.2793017 C597.03536,75.8379052 596.789934,76.4763092 596.462701,77.1147132 C596.135467,77.7531172 595.890042,78.3915212 595.644617,78.9501247 L593.844832,82.6209476 C593.108556,83.8977556 592.454089,85.0947631 591.88143,86.2917706 C591.308771,87.4887781 590.817921,88.6857855 590.408879,89.9625935 C590.245262,90.7605985 590.163454,91.638404 590.245262,92.59601 C590.327071,93.553616 590.654304,94.1122195 591.145155,94.3516209 C591.554197,94.5112219 592.045047,94.5112219 592.617706,94.2718204 C593.190365,94.032419 593.681215,93.872818 594.090257,93.713217 C595.562808,93.3142145 596.871743,92.755611 597.935252,92.0374065 C598.998761,91.319202 600.144079,90.7605985 601.371205,90.2817955 C603.989074,88.446384 606.688751,86.6109726 609.470237,84.9351621 C612.251722,83.2593516 614.9514,81.4239401 617.48746,79.4289277 C619.123628,78.0723192 620.923413,76.6359102 622.886815,75.0399002 C624.850216,73.4438903 626.73181,71.8478803 628.449786,70.0922693 C628.940637,69.6134663 629.513295,69.0548628 630.004146,68.4962594 C630.494996,67.9376559 631.067655,67.4588529 631.722122,67.0598504 C632.294781,66.6608479 633.031057,66.3416459 633.767332,66.2618454 C634.503608,66.1022444 635.321692,66.2618454 636.221584,66.7406484 C636.139776,67.1396509 635.976159,67.4588529 635.730734,67.5386534 C635.485309,67.6982544 635.239884,67.9376559 635.076267,68.2568579 C635.485309,68.3366584 635.730734,68.4962594 635.812542,68.8154613 C635.894351,69.1346633 635.976159,69.3740648 636.139776,69.6134663 C635.730734,70.0124688 635.321692,70.6508728 634.994458,71.3690773 C634.667225,72.1670823 634.258183,72.8054863 633.767332,73.4438903 C633.194673,74.2418953 632.376589,74.9600998 631.31308,75.6783042 C630.331379,76.3965087 629.349679,77.1945137 628.367978,78.0723192 L625.750109,80.3865337 C625.341067,80.7855362 624.850216,81.1845387 624.359366,81.4239401 C623.868516,81.6633416 623.459474,81.9825436 622.968623,82.4613466 L619.450862,85.2543641 C617.732885,86.5311721 615.933101,87.7281796 614.051507,88.925187 C612.169914,90.042394 610.288321,91.2394015 608.488536,92.436409 C607.26141,93.234414 605.870667,94.1122195 604.316307,95.1496259 C602.761948,96.1870324 601.207588,96.9052369 599.735037,97.4638404 C599.407803,97.6234414 598.998761,97.7032419 598.507911,97.7032419 C598.01706,97.7032419 597.608018,97.7830424 597.117168,97.9426434 C596.299084,98.2618454 595.481,98.5810474 594.499299,98.8204489 C593.517598,99.0598504 592.454089,99.0598504 591.226963,98.8204489 C590.654304,98.6608479 590.081645,98.3416459 589.754412,98.0224439 C589.34537,97.6234414 588.936328,97.2244389 588.363669,96.8254364 C587.136543,95.9476309 586.073034,95.0698254 585.25495,94.19202 C584.355057,93.3142145 584.027824,92.0374065 584.109632,90.2817955 C584.19144,88.286783 584.600482,86.4513716 585.25495,84.6159601 C585.991225,82.7805486 586.727501,81.1845387 587.463777,79.6683292 C588.200052,78.3117207 588.854519,77.0349127 589.508987,75.8379052 C590.081645,74.3216958 590.654304,73.1246883 591.145155,71.9276808 Z" id="XMLID_1505_"></path>
                <path d="M611.221496,133.322122 C610.815229,130.786709 610.815229,128.409759 611.384003,126.191272 C611.952778,123.972786 612.68406,121.833531 613.659102,119.931971 C616.17796,114.14806 619.509354,109.235697 623.734537,105.194882 C627.95972,101.074836 632.753677,97.5886425 638.197662,94.7363027 C638.766437,94.5778394 639.335211,94.4193761 639.660225,94.2609128 C640.066493,94.1024494 640.47276,93.9439861 640.879028,93.7855228 C642.09783,91.0916463 643.23538,88.2393065 644.210422,85.3077351 C645.185464,82.3761636 646.323013,79.5238238 647.623069,76.8299473 C645.429224,79.1276655 643.23538,81.4253837 641.041535,83.8023335 C638.84769,86.1792833 636.491338,88.3977698 634.053733,90.3785614 C633.241198,91.2501096 632.509916,92.0424262 631.616128,92.7555112 C630.803592,93.4685961 629.909804,94.0232178 628.934762,94.4986077 C628.20348,94.894766 627.390945,95.2116927 626.334649,95.4493877 C625.278354,95.6870827 624.222058,95.7663143 623.247016,95.845546 C622.19072,95.9247776 621.215678,95.7663143 620.159383,95.5286193 C619.18434,95.2909244 618.371805,94.894766 617.721777,94.4193761 C617.396763,94.1816811 617.071749,93.8647545 616.909242,93.3893645 C616.665482,92.9932062 616.421721,92.5178162 616.17796,92.1216579 C615.609186,91.3293413 615.121665,90.6162563 614.715397,89.9824031 C614.390383,89.2693181 614.227876,88.2393065 614.30913,86.8131366 C614.390383,85.4661984 614.715397,84.1192601 615.284172,82.8515536 C615.852946,81.5046153 616.502975,80.3161404 617.396763,79.2068972 C618.209298,78.0976539 619.103087,76.9884106 619.996876,76.0376307 C620.890664,75.0868508 621.784453,74.1360708 622.678241,73.3437542 C623.247016,72.8683643 623.897044,72.3137426 624.465819,71.8383527 C625.034593,71.3629627 625.684621,70.7291094 626.415903,70.0952561 C627.634706,68.6690862 628.853508,67.4013797 630.153564,66.4505997 C632.59117,64.3905765 635.435043,62.4890167 638.766437,60.5874568 C639.660225,60.1912985 640.554014,59.7159085 641.610309,59.2405186 C642.666605,58.7651286 643.397887,58.5274336 643.966661,58.448202 C644.210422,58.448202 644.535436,58.5274336 644.779196,58.6066653 C645.10421,58.6858969 645.429224,58.7651286 645.754238,58.8443603 C646.648027,59.0028236 647.623069,59.0820552 648.841872,59.0028236 C650.060675,58.9235919 651.035717,59.1612869 651.685745,59.7159085 C652.092012,59.5574452 652.417026,59.2405186 652.660787,58.8443603 C652.904547,58.448202 653.229561,58.1312753 653.798336,58.0520437 C653.960843,57.972812 654.204604,57.972812 654.367111,58.1312753 C654.610871,58.2897386 654.773378,58.2897386 654.935885,58.2897386 C655.342153,58.448202 655.910927,58.5274336 656.479702,58.448202 C657.048477,58.3689703 657.617251,58.448202 658.023519,58.6858969 C658.267279,58.8443603 658.429786,59.0028236 658.429786,59.1612869 C658.429786,59.3197502 658.51104,59.6366769 658.673547,60.0328352 C658.836054,60.3497618 658.998561,60.5874568 659.161068,60.8251518 C659.323575,60.9836151 659.323575,61.2213101 659.323575,61.4590051 C659.323575,61.6174684 659.242321,61.7759317 659.161068,61.934395 C658.998561,62.0928584 658.917307,62.3305534 658.836054,62.64748 C658.7548,62.8059433 658.7548,63.0436383 658.7548,63.2021016 C658.836054,63.4397966 658.7548,63.5982599 658.673547,63.7567232 C658.51104,64.4698082 658.186026,65.1828931 657.861012,65.9752098 C657.454744,66.7675264 657.210984,67.559843 657.12973,68.3521596 C657.12973,68.5106229 657.12973,68.6690862 657.210984,68.8275496 C657.292237,68.9860129 657.210984,69.1444762 657.12973,69.3029395 C656.967223,70.1744878 656.642209,70.9668044 656.073434,71.8383527 C655.585913,72.7099009 655.098392,73.5814492 654.610871,74.5322292 C653.392069,77.0676423 652.173266,79.7615188 650.954463,82.6138586 C649.735661,85.4661984 648.679365,88.1600749 647.86683,90.7747197 C648.923125,90.5370247 649.979421,89.9031714 650.954463,88.9523915 C652.010759,88.0016115 652.985801,87.2092949 653.960843,86.5754416 C655.017139,86.1792833 656.154688,85.6246617 657.373491,84.9115768 C658.592293,84.1984918 659.892349,83.5646385 661.111152,82.8515536 C661.354913,82.7723219 661.598673,82.6138586 661.923687,82.4553953 C662.167448,82.2969319 662.411208,82.1384686 662.736222,81.9800053 C663.955025,81.1876887 665.092574,80.5538354 666.14887,79.9992138 C667.205165,79.4445921 668.342715,78.8107389 669.561517,78.1768856 C670.861573,77.384569 671.999123,76.7507157 672.974165,76.196094 C673.949207,75.6414724 674.842995,75.0868508 675.655531,74.5322292 C676.468066,73.9776075 677.361854,73.4229859 678.174389,72.7891326 C679.068178,72.234511 680.04322,71.4421944 681.262023,70.4914144 C682.074558,69.9367928 683.0496,69.2237079 684.349656,68.5106229 C685.568459,67.797538 686.543501,67.0052214 687.112276,66.1336731 C687.843557,66.4505997 688.168571,66.846758 688.087318,67.322148 C688.006064,67.797538 688.087318,68.3521596 688.168571,69.0652445 C688.087318,69.4614028 687.924811,69.8575612 687.599797,70.1744878 C687.274783,70.4914144 687.112276,70.9668044 687.112276,71.4421944 L684.67467,73.5814492 C685.405952,73.4229859 685.974726,73.0268276 686.543501,72.3929743 C687.112276,71.759121 687.762304,71.3629627 688.412332,71.2044994 L688.818599,71.6006577 C688.087318,72.6306693 687.193529,73.5814492 686.05598,74.4529975 C684.918431,75.3245458 683.862135,76.1168624 682.887093,76.8299473 C681.912051,77.5430323 681.018262,78.1768856 680.04322,78.8107389 C679.068178,79.4445921 678.174389,80.0784454 677.280601,80.6330671 C676.305559,81.346152 675.574277,81.821542 675.086756,82.1384686 C674.599235,82.4553953 674.111714,82.7723219 673.624193,83.0100169 C673.217925,83.2477119 672.730404,83.4854069 672.16163,83.8023335 C671.674108,84.0400285 670.942827,84.4361868 669.967785,84.9115768 C667.936447,85.9415883 665.986363,87.0508316 663.955025,88.2393065 C661.923687,89.4277814 659.973603,90.457793 657.942265,91.408573 L645.347971,97.5886425 C644.129168,100.916372 642.991619,104.16487 641.935323,107.571832 C640.879028,110.899562 639.741479,114.14806 638.522676,117.238094 C637.141366,120.248898 635.678803,123.180469 634.134986,126.032809 C632.59117,128.885149 630.884846,131.579025 629.016015,134.114438 C628.284734,134.431365 627.797213,134.827523 627.309691,135.302913 C626.903424,135.778303 626.415903,136.332925 625.847128,136.887546 C625.440861,136.887546 625.115847,136.966778 625.034593,137.125241 C624.872086,137.283705 624.628326,137.5214 624.303312,137.759095 C623.247016,137.99679 622.353227,138.076021 621.540692,137.917558 C620.728157,137.759095 619.753115,137.679863 618.615566,137.442168 C618.209298,137.283705 617.721777,137.04601 617.31551,136.729083 C616.909242,136.412156 616.421721,136.174461 616.015453,135.936766 C615.771693,135.778303 615.527932,135.699071 615.202918,135.699071 C614.959158,135.699071 614.715397,135.61984 614.55289,135.461377 C613.821609,135.223682 613.252834,134.827523 612.765313,134.352133 C612.602806,133.71828 611.952778,133.401353 611.221496,133.322122 Z M624.303312,113.514206 C623.409523,114.781913 622.596988,116.128851 621.865706,117.555021 C621.053171,118.981191 620.32189,120.407361 619.671861,121.833531 C618.94058,123.338932 618.453059,125.002797 617.965538,126.825125 C617.55927,128.647454 617.396763,130.549014 617.478017,132.450573 C619.021833,132.450573 620.484397,131.975183 621.784453,131.103635 C623.084509,130.232087 624.140805,129.281307 625.034593,128.251295 C625.765875,127.300515 626.415903,126.349735 627.147184,125.240492 C627.878466,124.210481 628.447241,123.180469 628.934762,122.150457 L629.82855,120.724288 C630.722339,119.377349 631.534874,117.871948 632.347409,116.128851 C633.159944,114.464986 633.891226,112.72189 634.622507,110.899562 C635.353789,109.156465 636.003817,107.334137 636.653845,105.670272 C637.303873,103.927175 637.872648,102.342542 638.441422,100.757909 C635.760057,102.421774 633.241198,104.323334 630.884846,106.383357 C628.447241,108.681075 626.334649,110.978793 624.303312,113.514206 Z M621.865706,91.2501096 C622.271974,91.408573 622.759495,91.3293413 623.328269,90.933183 C623.897044,90.5370247 624.222058,90.2993297 624.465819,90.1408664 C625.278354,89.7447081 625.928382,89.1900865 626.57841,88.5562332 C627.228438,87.9223799 627.878466,87.2885266 628.609748,86.5754416 C630.478578,85.0700401 632.266156,83.4854069 633.891226,81.821542 C635.516296,80.1576771 637.060113,78.4938122 638.60393,76.8299473 C640.716521,74.3737658 642.666605,71.9175843 644.616689,69.5406345 C646.566774,67.1636847 648.435604,64.7075032 650.141928,62.2513217 L650.141928,61.8551634 C649.816914,61.5382367 649.329393,61.3005418 648.679365,61.0628468 C647.460562,61.5382367 646.323013,62.0928584 645.185464,62.5682483 C644.047915,63.0436383 642.991619,63.5190283 641.935323,63.9944182 C641.041535,64.4698082 640.229,65.0244298 639.416465,65.4998198 C638.60393,65.9752098 637.872648,66.5298314 637.141366,67.0052214 L635.678803,68.1144646 C635.191282,68.3521596 634.703761,68.6690862 634.297493,69.1444762 C633.891226,69.5406345 633.566212,70.0160245 633.159944,70.4121828 C632.672423,70.8083411 632.184902,71.2044994 631.697381,71.521426 C631.291114,71.8383527 630.803592,72.234511 630.397325,72.6306693 C629.909804,72.9475959 629.259776,73.6606809 628.447241,74.6906925 C628.122227,75.0076191 627.715959,75.3245458 627.309691,75.5622407 C626.903424,75.7999357 626.57841,76.1168624 626.334649,76.5922523 C626.090889,76.909179 625.847128,77.2261056 625.765875,77.5430323 C625.603368,77.8599589 625.440861,78.1768856 625.1971,78.4938122 C624.628326,79.0484338 624.059551,79.6030555 623.57203,80.1576771 C623.084509,80.6330671 622.678241,81.1876887 622.19072,81.821542 C621.134425,83.5646385 620.56565,85.54543 620.484397,87.6846849 C620.728157,87.3677582 620.890664,86.9715999 620.971918,86.5754416 C621.053171,86.1792833 621.215678,85.8623567 621.459439,85.783125 C621.378185,86.02082 621.215678,86.4169783 621.053171,86.9715999 C620.890664,87.5262216 620.728157,88.0808432 620.646904,88.7146965 C620.56565,89.2693181 620.56565,89.8239397 620.646904,90.3785614 C621.053171,90.8539513 621.296932,91.170878 621.865706,91.2501096 Z" id="XMLID_1507_"></path>
                <path d="M702.936215,77.8 C701.793979,79.4 700.406977,81.16 698.775211,83.08 C697.143445,85 695.430091,86.76 693.798324,88.28 C692.492912,89.56 691.10591,90.84 689.718909,92.2 C688.331908,93.56 686.700142,94.52 684.742022,95.24 C683.762963,95.56 682.865491,95.64 682.049608,95.32 C681.233725,95 680.49943,94.76 679.765136,94.52 C678.214958,93.96 677.072721,92.68 676.338427,90.84 C675.522544,90.28 675.033014,89.4 674.869837,88.44 C674.625072,87.4 674.625072,86.36 674.706661,85.16 C674.788249,84.04 674.951425,82.84 675.277779,81.8 C675.604132,80.68 675.848897,79.72 676.093662,78.84 C678.133369,74.6 680.744195,71 684.089316,68.2 C687.434437,65.4 691.10591,63 695.348502,61 C695.674856,61.16 696.001209,61.24 696.327562,61.16 C696.653915,61.08 696.980268,61.16 697.306622,61.32 C697.469798,61.4 697.632975,61.48 697.796152,61.64 C697.959328,61.8 698.122505,61.88 698.285681,61.96 C698.693623,62.12 699.183153,62.28 699.754271,62.36 C700.325389,62.44 700.814919,62.6 701.22286,62.76 C701.793979,62.92 702.283508,63.24 702.69145,63.8 C703.017803,64.28 703.425745,64.68 703.833686,64.92 C703.996863,65.08 704.078451,65.24 703.996863,65.32 C703.915275,65.4 703.833686,65.56 703.833686,65.72 C705.139099,65 706.689277,64.92 708.402632,65.24 C710.115986,65.64 711.258222,66.44 711.82934,67.64 C712.400459,69 712.563635,70.6 712.074105,72.52 C711.666164,74.36 711.176634,76.04 710.605516,77.4 C710.360751,78.12 710.034398,78.76 709.708044,79.4 C709.381691,80.04 709.055338,80.68 708.810573,81.4 C708.565808,82.2 708.321043,82.92 708.076278,83.8 C707.831513,84.6 707.586748,85.4 707.260395,86.2 C707.01563,86.92 706.770865,87.64 706.444512,88.44 C706.199747,89.24 706.036571,90.12 705.954982,90.92 C705.873394,91.8 705.954982,92.6 706.118159,93.32 C706.281336,94.04 706.689277,94.6 707.260395,95.08 C708.565808,95.48 709.789633,95.48 711.013457,95.08 C712.155694,94.68 713.379518,94.12 714.603343,93.56 C716.969404,92.52 719.0907,91.48 721.048819,90.52 C723.006939,89.48 724.88347,88.28 726.596824,86.84 C729.20765,84.6 731.655299,82.6 734.02136,80.68 C736.387421,78.84 738.671894,76.76 740.956366,74.52 C741.282719,74.04 741.609073,73.64 741.853838,73.48 C742.098603,73.32 742.588132,73 743.15925,72.6 C743.322427,71.88 743.811957,71.4 744.62784,71.08 C745.443723,70.76 746.341194,70.04 747.320254,68.92 C747.809784,68.36 748.299314,67.8 748.788844,67.24 C749.196785,66.76 749.93108,66.6 750.991728,66.84 C750.91014,67.24 751.073316,67.48 751.481258,67.48 C751.562846,67.88 751.562846,68.04 751.481258,67.88 C751.39967,67.72 751.318081,67.8 751.236493,68.12 C751.481258,68.36 751.644434,68.6 751.726023,68.84 C751.807611,69.08 752.052376,69.24 752.541906,69.32 C752.378729,70.28 751.970788,70.92 751.236493,71.32 C750.502198,71.72 749.849492,72.12 749.278374,72.68 C749.115197,72.84 748.870432,73.08 748.707255,73.32 C748.46249,73.56 748.380902,73.8 748.380902,74.12 C746.830724,76.12 745.280546,77.88 743.64878,79.4 C742.098603,81 740.548425,82.52 738.916659,83.96 C737.366481,85.4 735.734715,86.84 734.102948,88.28 C732.471182,89.72 730.676239,91.32 728.881297,93.16 C727.575884,94.04 726.270471,94.92 724.965058,95.8 C723.659645,96.68 722.272644,97.56 720.804054,98.28 C719.58023,98.52 718.437993,98.92 717.458934,99.4 C716.479874,99.88 715.337638,100.28 714.113813,100.6 C714.032225,100.6 713.950636,100.76 713.950636,101 C712.971577,100.92 711.910929,100.84 710.768692,100.84 C709.626456,100.76 708.565808,100.6 707.586748,100.12 C706.199747,99.56 705.057511,98.84 704.16004,98.04 C703.262568,97.24 702.446685,96.2 701.71239,94.68 C700.978096,93.48 700.570154,92.2 700.488566,90.68 C700.325389,89.24 700.325389,87.8 700.488566,86.36 C700.651742,84.92 700.896507,83.48 701.304449,82.04 C701.957155,80.28 702.365097,79 702.936215,77.8 Z M685.80267,85.32 C688.413496,82.84 690.861145,80.2 693.145618,77.4 C695.430091,74.6 697.632975,71.8 699.917448,68.92 C699.835859,68.36 699.672683,67.8 699.509506,67.24 C699.346329,66.76 699.183153,66.2 699.019976,65.56 C698.612035,65.8 698.040916,65.96 697.469798,66.04 C696.89868,66.12 696.327562,66.36 695.91962,66.68 C695.674856,66.84 695.430091,67.08 695.348502,67.32 C695.185326,67.56 695.022149,67.8 694.777384,67.96 C694.532619,68.12 694.206266,68.28 693.879913,68.44 C693.55356,68.6 693.227206,68.76 692.982441,68.92 C691.758617,69.72 690.697969,70.44 689.800497,71.24 C688.903026,72.04 687.923966,72.84 687.026495,73.8 C686.455377,74.52 685.884259,75.08 685.476317,75.64 C685.068376,76.2 684.660434,76.84 684.334081,77.48 C684.170904,77.72 684.007728,77.96 683.844551,78.28 C683.681374,78.52 683.518198,78.76 683.355021,79.08 C681.723255,81.8 680.744195,85.24 680.49943,89.48 C681.641667,89.08 682.620726,88.44 683.518198,87.72 C684.089316,87 684.905199,86.2 685.80267,85.32 Z" id="XMLID_1511_"></path>
                <path d="M817.276693,66.1592934 C816.875146,67.7425235 816.15236,69.088269 815.108335,70.1173686 C814.064311,71.1464681 813.020286,72.2547292 812.056572,73.3629902 C811.092857,74.2337667 810.209452,75.0253818 809.326046,75.8169968 C808.442641,76.6086118 807.639545,77.4002269 806.75614,78.1918419 C805.953045,78.9834569 805.149949,79.6167489 804.346853,80.250041 C803.463448,80.8041715 802.660352,81.5957865 801.776947,82.3874015 C800.331375,83.8123086 798.966112,84.9997312 797.681159,85.9496692 C796.396206,86.8996072 794.870324,87.9287068 793.183824,89.1161293 L787.642463,92.5200739 C786.759058,92.9158815 785.875653,93.470012 784.911938,94.103304 C783.948223,94.736596 782.904199,95.2907266 781.860175,95.6865341 C780.173674,96.3989876 778.326554,96.7947951 776.399124,96.9531181 C774.471695,97.1114411 772.544265,96.8739566 770.536526,96.1615031 C770.134978,96.0031801 769.653121,95.6865341 769.090954,95.3698881 C768.528787,94.9740805 767.96662,94.578273 767.484762,94.1824655 C766.761976,93.470012 766.03919,92.9158815 765.155785,92.3617509 C764.27238,91.8076204 763.629903,91.0951669 763.228355,90.3035519 C762.987427,89.8285828 762.746498,89.1161293 762.666188,88.2453528 C762.505569,87.3745762 762.505569,86.6621227 762.505569,85.9496692 C762.505569,85.0788927 762.585879,84.2872776 762.746498,83.4956626 C762.907117,82.7040476 763.067736,81.833271 763.228355,81.041656 C762.666188,81.358302 762.023712,81.833271 761.461545,82.4665631 C760.899378,83.0998551 760.337211,83.6539856 759.775044,84.2081161 C759.052258,84.9205696 758.409781,85.4747002 757.847614,85.9496692 C757.285447,86.4246382 756.72328,87.0579302 756.321733,87.6912223 C754.95647,88.5619988 753.751827,89.4327753 752.627493,90.3035519 C751.583468,91.1743284 750.459134,92.1242664 749.254491,92.995043 C748.531705,93.311689 747.808919,93.7074965 747.086133,94.0241425 C746.283037,94.3407885 745.560251,94.6574345 744.757155,94.894919 C743.954059,95.1324035 743.231273,95.2907266 742.347868,95.3698881 C741.544772,95.4490496 740.741677,95.2907266 739.938581,94.894919 C739.376414,94.4991115 738.894557,93.944981 738.493009,93.3908505 C738.171771,92.83672 737.770223,92.2034279 737.368675,91.4909744 C737.208056,91.2534899 736.967127,91.0160054 736.645889,90.7785209 C736.324651,90.5410364 736.083722,90.3035519 735.923103,89.9869058 C735.441245,89.1952908 735.200317,88.0078683 735.441245,86.4246382 C735.601865,84.2081161 736.244341,82.2290785 737.288365,80.4875255 C738.33239,78.7459724 739.456724,77.0044193 740.581058,75.4211893 C742.428178,72.7296982 744.676846,70.1965301 747.166442,67.9008465 C749.656039,65.6051629 752.386564,63.5469638 755.358018,61.8845723 C756.080804,61.5679262 756.642971,61.1721187 757.205138,60.7763112 C757.767305,60.3805037 758.409781,60.0638577 759.052258,59.6680502 C759.614425,59.2722426 760.256901,58.8764351 760.979687,58.6389506 C761.702474,58.4014661 762.34495,58.0848201 763.067736,57.6098511 C763.469284,57.6890126 764.111761,57.6890126 764.914856,57.4515281 C765.717952,57.2932051 766.280119,57.1348821 766.681667,56.9765591 C767.96662,57.1348821 769.251573,57.3723666 770.536526,57.6098511 C771.821479,57.8473356 772.945813,58.3223046 773.989837,58.8764351 C775.033862,57.5306896 775.917267,56.184944 776.720362,54.760037 C777.523458,53.3351299 778.406863,51.9893844 779.370578,50.4853158 C780.253983,49.0604088 781.137389,47.6355017 782.101103,46.2897561 C783.064818,44.9440106 783.867914,43.5191035 784.51039,42.015035 C785.634724,40.3526434 786.759058,38.6110903 787.963702,36.7903758 C789.168345,35.0488227 790.21237,33.0697851 791.176084,30.9324245 C791.577632,29.9824865 791.97918,29.1908715 792.300418,28.3992564 C792.621657,27.6076414 792.942895,26.7368649 793.183824,25.6286038 C793.424752,24.4411813 793.8263,23.3329202 794.388467,22.3038207 C794.950634,21.2747212 795.512801,20.2456216 796.155278,19.2956836 C796.074968,18.5832301 796.155278,18.1874225 796.315897,17.949938 C796.556825,17.7124535 796.797754,17.3958075 797.038683,17 C797.841778,17 798.564565,17 799.287351,17 C800.010137,17 800.652613,17.0791615 801.134471,17.2374845 C801.616328,17.3958075 802.017876,17.7124535 802.339114,18.108261 C802.660352,18.5040686 802.820972,19.2165221 802.820972,20.2456216 C802.740662,20.7205906 802.580043,21.3538827 802.419424,21.9871747 C802.258805,22.6204667 802.098185,23.2537587 802.017876,23.9662123 C801.937566,24.2036968 801.937566,24.4411813 801.937566,24.6786658 C802.017876,24.9161503 802.017876,25.1536348 802.017876,25.3911193 C801.857257,26.1035729 801.536018,26.7368649 801.134471,27.4493184 C800.732923,28.1617719 800.331375,28.953387 800.010137,29.903325 C799.688898,30.69494 799.36766,31.4073936 799.046422,32.1990086 C798.725184,32.9906236 798.403945,33.6239156 797.922088,34.2572077 L795.191563,38.2152828 C794.790015,38.9277364 794.388467,39.5610284 794.067229,40.2734819 C793.745991,40.9859354 793.344443,41.6192275 792.942895,42.331681 C792.541347,43.0441345 792.05949,43.6774265 791.577632,44.2315571 C791.095775,44.7856876 790.694227,45.4189796 790.21237,46.1314331 C789.248655,47.7938247 788.28494,49.5353778 787.240916,51.2769308 C786.196891,53.0184839 785.152867,54.6808755 784.189152,56.4224285 L783.064818,58.4806276 C782.82389,59.0347581 782.422342,59.5888887 781.940484,59.9846962 C781.458627,60.3805037 781.057079,60.9346342 780.735841,61.6470877 C780.173674,62.8345103 779.531197,64.1010943 778.96903,65.4468399 C778.406863,66.7925854 777.684077,68.0591695 776.880982,69.246592 C776.559743,69.8007226 776.158196,70.4340146 775.836957,70.9881451 C775.515719,71.5422756 775.114171,72.1755677 774.792933,72.8088597 C774.471695,73.3629902 774.150456,73.9962822 773.989837,74.7087358 C773.748909,75.4211893 773.42767,76.0544813 773.026122,76.6086118 C772.303336,77.9543574 771.58055,79.4584259 770.777455,81.1208175 C769.974359,82.7832091 769.492502,84.5247621 769.331882,86.3454767 C769.251573,87.5328993 769.412192,88.7203218 769.81374,89.9077443 C770.054668,90.6201979 770.697145,91.1743284 771.741169,91.6492974 C772.785194,92.1242664 773.748909,92.2825894 774.712623,92.2034279 C775.676338,92.1242664 776.720362,91.8076204 777.764387,91.3326514 C778.888721,90.8576824 779.852436,90.3035519 780.735841,89.8285828 C783.064818,88.5619988 785.152867,87.2954147 787.080297,86.1079922 C789.007726,84.9205696 790.854846,83.6539856 792.701966,82.30824 C794.468777,80.9624945 796.315897,79.6167489 798.163017,78.0335189 C800.010137,76.5294503 801.937566,74.7878973 804.025615,72.9671827 C804.90902,72.2547292 805.712116,71.5422756 806.434902,70.7506606 C807.237998,69.9590456 808.041093,69.246592 809.004808,68.5341385 C809.326046,68.2174925 809.807904,67.821685 810.370071,67.346716 C810.932238,66.8717469 811.494405,66.3967779 812.136881,65.9218089 C812.779358,65.4468399 813.341525,64.9718709 813.903692,64.6552249 C814.465859,64.3385788 814.947716,64.1010943 815.349264,64.0219328 C815.590193,64.0219328 815.750812,64.1802558 815.831121,64.4177403 C815.911431,64.6552249 815.99174,64.9718709 815.99174,65.2093554 C816.07205,65.5260014 816.15236,65.7634859 816.312979,66.0009704 C816.634217,66.1592934 816.955455,66.2384549 817.276693,66.1592934 Z M767.243834,63.6261253 C766.842286,63.5469638 766.360428,63.6261253 765.958881,63.9427713 C765.557333,64.2594173 764.995166,64.4177403 764.27238,64.4177403 C761.381235,66.5551009 758.409781,68.6133 755.518637,70.6714991 C752.627493,72.7296982 750.057586,75.1837048 747.969538,78.1126804 C747.728609,78.0335189 747.56799,78.0335189 747.48768,78.1918419 C747.407371,78.3501649 747.327061,78.3501649 747.166442,78.3501649 C746.684585,79.3001029 746.122418,80.1708795 745.479941,81.041656 C744.917774,81.9124325 744.275298,82.7832091 743.713131,83.6539856 C743.150964,84.5247621 742.669106,85.5538617 742.267559,86.6621227 C741.866011,87.7703838 741.625082,88.9578063 741.544772,90.3035519 C743.231273,89.9077443 744.837465,89.1952908 746.283037,88.1661913 C747.728609,87.1370917 749.093872,86.1079922 750.378825,84.9997312 C754.394303,81.5957865 758.088543,77.9543574 761.381235,74.0754437 C764.673928,70.1173686 767.96662,66.2384549 771.339622,62.3595413 C771.419931,62.3595413 771.500241,62.2803798 771.500241,62.1220568 C770.616835,62.3595413 769.81374,62.5970258 769.090954,62.8345103 C768.448477,62.8345103 767.806001,63.1511563 767.243834,63.6261253 Z" id="XMLID_1514_"></path>
                <path d="M831.394309,77.8 C830.252073,79.4 828.865072,81.16 827.233305,83.08 C825.601539,85 823.888185,86.76 822.256419,88.28 C820.951006,89.56 819.564004,90.84 818.177003,92.2 C816.790002,93.56 815.158236,94.52 813.200117,95.24 C812.221057,95.56 811.323585,95.64 810.507702,95.32 C809.691819,95 808.957525,94.76 808.22323,94.52 C806.673052,93.96 805.530816,92.68 804.796521,90.84 C803.980638,90.28 803.491108,89.4 803.327931,88.44 C803.083166,87.4 803.083166,86.36 803.164755,85.16 C803.246343,84.04 803.40952,82.84 803.735873,81.8 C804.062226,80.68 804.306991,79.72 804.551756,78.84 C806.591464,74.6 809.202289,71 812.54741,68.2 C815.892531,65.4 819.564004,63 823.806596,61 C824.13295,61.16 824.459303,61.24 824.785656,61.16 C825.112009,61.08 825.438363,61.16 825.764716,61.32 C825.927892,61.4 826.091069,61.48 826.254246,61.64 C826.417422,61.8 826.580599,61.88 826.743776,61.96 C827.151717,62.12 827.641247,62.28 828.212365,62.36 C828.783483,62.44 829.273013,62.6 829.680955,62.76 C830.252073,62.92 830.741603,63.24 831.149544,63.8 C831.475897,64.28 831.883839,64.68 832.29178,64.92 C832.454957,65.08 832.536545,65.24 832.454957,65.32 C832.373369,65.4 832.29178,65.56 832.29178,65.72 C833.597193,65 835.147371,64.92 836.860726,65.24 C838.57408,65.64 839.716316,66.44 840.287435,67.64 C840.858553,69 841.021729,70.6 840.5322,72.52 C840.124258,74.36 839.634728,76.04 839.06361,77.4 C838.818845,78.12 838.492492,78.76 838.166139,79.4 C837.839785,80.04 837.513432,80.68 837.268667,81.4 C837.023902,82.2 836.779137,82.92 836.534372,83.8 C836.289608,84.6 836.044843,85.4 835.718489,86.2 C835.473724,86.92 835.22896,87.64 834.902606,88.44 C834.657841,89.24 834.494665,90.12 834.413076,90.92 C834.331488,91.8 834.413076,92.6 834.576253,93.32 C834.73943,94.04 835.147371,94.6 835.718489,95.08 C837.023902,95.48 838.247727,95.48 839.471552,95.08 C840.613788,94.68 841.837612,94.12 843.061437,93.56 C845.427498,92.52 847.548794,91.48 849.506913,90.52 C851.465033,89.48 853.341564,88.28 855.054918,86.84 C857.665744,84.6 860.113393,82.6 862.479454,80.68 C864.845515,78.84 867.129988,76.76 869.41446,74.52 C869.740814,74.04 870.067167,73.64 870.311932,73.48 C870.556697,73.32 871.046226,73 871.617345,72.6 C871.780521,71.88 872.270051,71.4 873.085934,71.08 C873.901817,70.76 874.799289,70.04 875.778348,68.92 C876.267878,68.36 876.757408,67.8 877.246938,67.24 C877.654879,66.76 878.389174,66.6 879.449822,66.84 C879.368234,67.24 879.53141,67.48 879.939352,67.48 C880.02094,67.88 880.02094,68.04 879.939352,67.88 C879.857764,67.72 879.776175,67.8 879.694587,68.12 C879.939352,68.36 880.102529,68.6 880.184117,68.84 C880.265705,69.08 880.51047,69.24 881,69.32 C880.836823,70.28 880.428882,70.92 879.694587,71.32 C878.960292,71.72 878.307586,72.12 877.736468,72.68 C877.573291,72.84 877.328526,73.08 877.16535,73.32 C876.920585,73.56 876.838996,73.8 876.838996,74.12 C875.288818,76.12 873.738641,77.88 872.106874,79.4 C870.556697,81 869.006519,82.52 867.374753,83.96 C865.824575,85.4 864.192809,86.84 862.561043,88.28 C860.929276,89.72 859.134334,91.32 857.339391,93.16 C856.033978,94.04 854.728565,94.92 853.423152,95.8 C852.117739,96.68 850.730738,97.56 849.262148,98.28 C848.038324,98.52 846.896087,98.92 845.917028,99.4 C844.937968,99.88 843.795732,100.28 842.571907,100.6 C842.490319,100.6 842.408731,100.76 842.408731,101 C841.429671,100.92 840.369023,100.84 839.226787,100.84 C838.08455,100.76 837.023902,100.6 836.044843,100.12 C834.657841,99.56 833.515605,98.84 832.618134,98.04 C831.720662,97.24 830.904779,96.2 830.170484,94.68 C829.43619,93.48 829.028248,92.2 828.94666,90.68 C828.783483,89.24 828.783483,87.8 828.94666,86.36 C829.109836,84.92 829.354601,83.48 829.762543,82.04 C830.415249,80.28 830.904779,79 831.394309,77.8 Z M814.260765,85.32 C816.87159,82.84 819.31924,80.2 821.603712,77.4 C823.888185,74.6 826.091069,71.8 828.375542,68.92 C828.293953,68.36 828.130777,67.8 827.9676,67.24 C827.804424,66.76 827.641247,66.2 827.47807,65.56 C827.070129,65.8 826.499011,65.96 825.927892,66.04 C825.356774,66.12 824.785656,66.36 824.377715,66.68 C824.13295,66.84 823.888185,67.08 823.806596,67.32 C823.64342,67.56 823.480243,67.8 823.235478,67.96 C822.990713,68.12 822.66436,68.28 822.338007,68.44 C822.011654,68.6 821.6853,68.76 821.440536,68.92 C820.216711,69.72 819.156063,70.44 818.258592,71.24 C817.36112,72.04 816.382061,72.84 815.484589,73.8 C814.913471,74.52 814.342353,75.08 813.934411,75.64 C813.52647,76.2 813.118528,76.84 812.792175,77.48 C812.628998,77.72 812.465822,77.96 812.302645,78.28 C812.139469,78.52 811.976292,78.76 811.813115,79.08 C810.181349,81.8 809.202289,85.24 808.957525,89.48 C810.099761,89.08 811.078821,88.44 811.976292,87.72 C812.54741,87 813.444881,86.2 814.260765,85.32 Z" id="XMLID_1517_"></path>
            </g>
        </g>
    </g>
</svg>